G04 EAGLE Gerber X2 export*
%TF.Part,Single*%
%TF.FileFunction,Copper,L1,Top,Mixed*%
%TF.FilePolarity,Positive*%
%TF.GenerationSoftware,Autodesk,EAGLE,9.1.3*%
%TF.CreationDate,2019-02-17T14:50:35Z*%
G75*
%MOMM*%
%FSLAX34Y34*%
%LPD*%
%AMOC8*
5,1,8,0,0,1.08239X$1,22.5*%
G01*
%ADD10C,1.524000*%
%ADD11P,1.649562X8X292.500000*%
%ADD12C,1.308000*%
%ADD13C,1.308000*%
%ADD14P,1.649562X8X22.500000*%
%ADD15C,0.152400*%
%ADD16C,0.152400*%

G36*
X86438Y10172D02*
X86438Y10172D01*
X86510Y10174D01*
X86559Y10192D01*
X86610Y10200D01*
X86674Y10234D01*
X86741Y10259D01*
X86782Y10291D01*
X86828Y10316D01*
X86877Y10367D01*
X86933Y10412D01*
X86961Y10456D01*
X86997Y10494D01*
X87027Y10559D01*
X87066Y10619D01*
X87079Y10670D01*
X87101Y10717D01*
X87109Y10788D01*
X87126Y10858D01*
X87122Y10910D01*
X87128Y10961D01*
X87113Y11032D01*
X87107Y11103D01*
X87087Y11151D01*
X87076Y11202D01*
X87039Y11263D01*
X87011Y11329D01*
X86966Y11385D01*
X86949Y11413D01*
X86932Y11428D01*
X86906Y11460D01*
X75476Y22890D01*
X73913Y24453D01*
X73913Y36837D01*
X73912Y36844D01*
X73899Y36928D01*
X73891Y37018D01*
X73879Y37048D01*
X73874Y37080D01*
X73831Y37161D01*
X73795Y37245D01*
X73769Y37277D01*
X73758Y37298D01*
X73735Y37320D01*
X73690Y37376D01*
X50076Y60990D01*
X50002Y61043D01*
X49932Y61103D01*
X49902Y61115D01*
X49876Y61134D01*
X49789Y61161D01*
X49704Y61195D01*
X49663Y61199D01*
X49641Y61206D01*
X49609Y61205D01*
X49537Y61213D01*
X37153Y61213D01*
X23113Y75253D01*
X23113Y407347D01*
X24453Y408687D01*
X24832Y408687D01*
X24922Y408701D01*
X25013Y408709D01*
X25043Y408721D01*
X25075Y408726D01*
X25156Y408769D01*
X25240Y408805D01*
X25272Y408831D01*
X25292Y408842D01*
X25315Y408865D01*
X25371Y408910D01*
X50200Y433739D01*
X52095Y433739D01*
X53434Y432400D01*
X53434Y430505D01*
X27910Y404981D01*
X27857Y404907D01*
X27797Y404838D01*
X27785Y404807D01*
X27766Y404781D01*
X27739Y404694D01*
X27705Y404609D01*
X27701Y404569D01*
X27694Y404546D01*
X27695Y404514D01*
X27687Y404443D01*
X27687Y77463D01*
X27701Y77372D01*
X27709Y77282D01*
X27721Y77252D01*
X27726Y77220D01*
X27769Y77139D01*
X27805Y77055D01*
X27831Y77023D01*
X27842Y77002D01*
X27865Y76980D01*
X27910Y76924D01*
X38824Y66010D01*
X38898Y65957D01*
X38968Y65897D01*
X38998Y65885D01*
X39024Y65866D01*
X39111Y65839D01*
X39196Y65805D01*
X39237Y65801D01*
X39259Y65794D01*
X39291Y65795D01*
X39363Y65787D01*
X51747Y65787D01*
X71962Y45572D01*
X72041Y45515D01*
X72116Y45453D01*
X72141Y45443D01*
X72162Y45428D01*
X72255Y45399D01*
X72346Y45365D01*
X72372Y45363D01*
X72397Y45356D01*
X72494Y45358D01*
X72592Y45354D01*
X72617Y45361D01*
X72643Y45362D01*
X72735Y45396D01*
X72828Y45423D01*
X72849Y45438D01*
X72874Y45447D01*
X72950Y45507D01*
X73030Y45563D01*
X73046Y45584D01*
X73066Y45600D01*
X73119Y45682D01*
X73177Y45760D01*
X73185Y45785D01*
X73199Y45807D01*
X73223Y45902D01*
X73253Y45994D01*
X73253Y46020D01*
X73259Y46046D01*
X73252Y46143D01*
X73251Y46240D01*
X73241Y46272D01*
X73240Y46291D01*
X73227Y46321D01*
X73204Y46401D01*
X72135Y48981D01*
X72135Y52619D01*
X73527Y55980D01*
X76100Y58553D01*
X79461Y59945D01*
X98339Y59945D01*
X101700Y58553D01*
X104273Y55980D01*
X105665Y52619D01*
X105665Y48981D01*
X104273Y45620D01*
X101700Y43047D01*
X98339Y41655D01*
X79461Y41655D01*
X76881Y42724D01*
X76786Y42746D01*
X76693Y42775D01*
X76667Y42774D01*
X76642Y42780D01*
X76545Y42771D01*
X76447Y42768D01*
X76423Y42759D01*
X76397Y42757D01*
X76308Y42717D01*
X76216Y42684D01*
X76196Y42668D01*
X76172Y42657D01*
X76100Y42591D01*
X76024Y42530D01*
X76010Y42508D01*
X75991Y42491D01*
X75944Y42405D01*
X75891Y42323D01*
X75885Y42298D01*
X75872Y42275D01*
X75855Y42179D01*
X75831Y42085D01*
X75833Y42059D01*
X75829Y42033D01*
X75843Y41936D01*
X75851Y41840D01*
X75861Y41816D01*
X75865Y41790D01*
X75909Y41703D01*
X75947Y41613D01*
X75967Y41588D01*
X75976Y41570D01*
X76000Y41547D01*
X76052Y41482D01*
X76924Y40610D01*
X78487Y39047D01*
X78487Y26662D01*
X78501Y26572D01*
X78509Y26481D01*
X78521Y26452D01*
X78526Y26420D01*
X78569Y26339D01*
X78605Y26255D01*
X78631Y26223D01*
X78642Y26202D01*
X78665Y26180D01*
X78710Y26124D01*
X89624Y15210D01*
X89698Y15157D01*
X89768Y15097D01*
X89798Y15085D01*
X89824Y15066D01*
X89911Y15039D01*
X89996Y15005D01*
X90037Y15001D01*
X90059Y14994D01*
X90091Y14995D01*
X90163Y14987D01*
X506737Y14987D01*
X506828Y15001D01*
X506918Y15009D01*
X506948Y15021D01*
X506980Y15026D01*
X507061Y15069D01*
X507145Y15105D01*
X507177Y15131D01*
X507198Y15142D01*
X507220Y15165D01*
X507276Y15210D01*
X556290Y64224D01*
X556343Y64298D01*
X556403Y64368D01*
X556415Y64398D01*
X556434Y64424D01*
X556461Y64511D01*
X556495Y64596D01*
X556499Y64637D01*
X556506Y64659D01*
X556505Y64691D01*
X556513Y64763D01*
X556513Y74937D01*
X556499Y75028D01*
X556491Y75118D01*
X556479Y75148D01*
X556474Y75180D01*
X556431Y75261D01*
X556395Y75345D01*
X556369Y75377D01*
X556358Y75398D01*
X556335Y75420D01*
X556290Y75476D01*
X543813Y87953D01*
X543813Y240037D01*
X543799Y240128D01*
X543791Y240218D01*
X543779Y240248D01*
X543774Y240280D01*
X543731Y240361D01*
X543695Y240445D01*
X543669Y240477D01*
X543658Y240498D01*
X543635Y240520D01*
X543617Y240542D01*
X543613Y240549D01*
X543608Y240553D01*
X543590Y240576D01*
X518413Y265753D01*
X518413Y282194D01*
X518410Y282214D01*
X518412Y282233D01*
X518390Y282335D01*
X518374Y282437D01*
X518364Y282454D01*
X518360Y282474D01*
X518307Y282563D01*
X518258Y282654D01*
X518244Y282668D01*
X518234Y282685D01*
X518155Y282752D01*
X518080Y282824D01*
X518062Y282832D01*
X518047Y282845D01*
X517951Y282884D01*
X517857Y282927D01*
X517837Y282929D01*
X517819Y282937D01*
X517652Y282955D01*
X516912Y282955D01*
X511555Y288312D01*
X511555Y295888D01*
X516912Y301245D01*
X517652Y301245D01*
X517672Y301248D01*
X517691Y301246D01*
X517793Y301268D01*
X517895Y301284D01*
X517912Y301294D01*
X517932Y301298D01*
X518021Y301351D01*
X518112Y301400D01*
X518126Y301414D01*
X518143Y301424D01*
X518210Y301503D01*
X518282Y301578D01*
X518290Y301596D01*
X518303Y301611D01*
X518342Y301707D01*
X518385Y301801D01*
X518387Y301821D01*
X518395Y301839D01*
X518413Y302006D01*
X518413Y331147D01*
X556290Y369024D01*
X556343Y369098D01*
X556403Y369168D01*
X556415Y369198D01*
X556434Y369224D01*
X556461Y369311D01*
X556495Y369396D01*
X556499Y369437D01*
X556506Y369459D01*
X556505Y369491D01*
X556513Y369563D01*
X556513Y405138D01*
X556499Y405228D01*
X556491Y405319D01*
X556479Y405348D01*
X556474Y405380D01*
X556431Y405461D01*
X556395Y405545D01*
X556369Y405577D01*
X556358Y405598D01*
X556335Y405620D01*
X556290Y405676D01*
X519976Y441990D01*
X519902Y442043D01*
X519832Y442103D01*
X519802Y442115D01*
X519776Y442134D01*
X519689Y442161D01*
X519604Y442195D01*
X519563Y442199D01*
X519541Y442206D01*
X519509Y442205D01*
X519438Y442213D01*
X240353Y442213D01*
X239013Y443553D01*
X239013Y445447D01*
X240353Y446787D01*
X521647Y446787D01*
X523210Y445224D01*
X559524Y408910D01*
X561087Y407347D01*
X561087Y367353D01*
X523210Y329476D01*
X523157Y329402D01*
X523097Y329332D01*
X523085Y329302D01*
X523066Y329276D01*
X523039Y329189D01*
X523005Y329104D01*
X523001Y329063D01*
X522994Y329041D01*
X522995Y329009D01*
X522987Y328937D01*
X522987Y302006D01*
X522990Y301986D01*
X522988Y301967D01*
X523010Y301865D01*
X523026Y301763D01*
X523036Y301746D01*
X523040Y301726D01*
X523093Y301637D01*
X523142Y301546D01*
X523156Y301532D01*
X523166Y301515D01*
X523245Y301448D01*
X523320Y301376D01*
X523338Y301368D01*
X523353Y301355D01*
X523449Y301316D01*
X523543Y301273D01*
X523563Y301271D01*
X523581Y301263D01*
X523748Y301245D01*
X524488Y301245D01*
X529845Y295888D01*
X529845Y288312D01*
X524488Y282955D01*
X523748Y282955D01*
X523728Y282952D01*
X523709Y282954D01*
X523607Y282932D01*
X523505Y282916D01*
X523488Y282906D01*
X523468Y282902D01*
X523379Y282849D01*
X523288Y282800D01*
X523274Y282786D01*
X523257Y282776D01*
X523190Y282697D01*
X523118Y282622D01*
X523110Y282604D01*
X523097Y282589D01*
X523058Y282493D01*
X523015Y282399D01*
X523013Y282379D01*
X523005Y282361D01*
X522987Y282194D01*
X522987Y267963D01*
X523001Y267872D01*
X523009Y267782D01*
X523021Y267752D01*
X523026Y267720D01*
X523069Y267639D01*
X523105Y267555D01*
X523131Y267523D01*
X523142Y267502D01*
X523165Y267480D01*
X523210Y267424D01*
X548387Y242247D01*
X548387Y90163D01*
X548401Y90072D01*
X548409Y89982D01*
X548421Y89952D01*
X548426Y89920D01*
X548469Y89839D01*
X548505Y89755D01*
X548531Y89723D01*
X548542Y89702D01*
X548565Y89680D01*
X548610Y89624D01*
X561087Y77147D01*
X561087Y62553D01*
X509994Y11460D01*
X509952Y11402D01*
X509903Y11350D01*
X509881Y11303D01*
X509851Y11261D01*
X509830Y11192D01*
X509799Y11127D01*
X509794Y11075D01*
X509778Y11025D01*
X509780Y10954D01*
X509772Y10883D01*
X509783Y10832D01*
X509785Y10780D01*
X509809Y10712D01*
X509824Y10642D01*
X509851Y10597D01*
X509869Y10549D01*
X509914Y10493D01*
X509951Y10431D01*
X509990Y10397D01*
X510023Y10357D01*
X510083Y10318D01*
X510138Y10271D01*
X510186Y10252D01*
X510230Y10224D01*
X510299Y10206D01*
X510366Y10179D01*
X510437Y10171D01*
X510468Y10163D01*
X510492Y10165D01*
X510532Y10161D01*
X559883Y10161D01*
X559954Y10172D01*
X560026Y10174D01*
X560075Y10192D01*
X560126Y10200D01*
X560189Y10234D01*
X560257Y10259D01*
X560297Y10291D01*
X560343Y10316D01*
X560393Y10368D01*
X560449Y10412D01*
X560477Y10456D01*
X560513Y10494D01*
X560543Y10559D01*
X560582Y10619D01*
X560595Y10670D01*
X560616Y10717D01*
X560624Y10788D01*
X560642Y10858D01*
X560638Y10910D01*
X560644Y10961D01*
X560628Y11032D01*
X560623Y11103D01*
X560602Y11151D01*
X560591Y11202D01*
X560554Y11263D01*
X560526Y11329D01*
X560482Y11385D01*
X560465Y11413D01*
X560447Y11428D01*
X560422Y11460D01*
X556508Y15374D01*
X552997Y21455D01*
X551179Y28239D01*
X551179Y35261D01*
X552997Y42045D01*
X556508Y48126D01*
X561474Y53092D01*
X567555Y56603D01*
X574339Y58421D01*
X581361Y58421D01*
X588145Y56603D01*
X594226Y53092D01*
X597940Y49378D01*
X597998Y49337D01*
X598050Y49287D01*
X598097Y49265D01*
X598139Y49235D01*
X598208Y49214D01*
X598273Y49184D01*
X598325Y49178D01*
X598375Y49162D01*
X598446Y49164D01*
X598517Y49156D01*
X598568Y49167D01*
X598620Y49169D01*
X598688Y49193D01*
X598758Y49209D01*
X598803Y49235D01*
X598851Y49253D01*
X598907Y49298D01*
X598969Y49335D01*
X599003Y49374D01*
X599043Y49407D01*
X599082Y49467D01*
X599129Y49522D01*
X599148Y49570D01*
X599176Y49614D01*
X599194Y49683D01*
X599221Y49750D01*
X599229Y49821D01*
X599237Y49852D01*
X599235Y49876D01*
X599239Y49917D01*
X599239Y445383D01*
X599228Y445454D01*
X599226Y445526D01*
X599208Y445575D01*
X599200Y445626D01*
X599166Y445689D01*
X599141Y445757D01*
X599109Y445797D01*
X599084Y445843D01*
X599032Y445893D01*
X598988Y445949D01*
X598944Y445977D01*
X598906Y446013D01*
X598841Y446043D01*
X598781Y446082D01*
X598730Y446095D01*
X598683Y446116D01*
X598612Y446124D01*
X598542Y446142D01*
X598490Y446138D01*
X598439Y446144D01*
X598368Y446128D01*
X598297Y446123D01*
X598249Y446102D01*
X598198Y446091D01*
X598137Y446055D01*
X598071Y446026D01*
X598015Y445982D01*
X597987Y445965D01*
X597972Y445947D01*
X597940Y445922D01*
X594226Y442208D01*
X588145Y438697D01*
X581361Y436879D01*
X574339Y436879D01*
X567555Y438697D01*
X561474Y442208D01*
X556508Y447174D01*
X552997Y453255D01*
X551179Y460039D01*
X551179Y467061D01*
X552997Y473845D01*
X556508Y479926D01*
X557122Y480540D01*
X557164Y480598D01*
X557213Y480650D01*
X557235Y480697D01*
X557265Y480739D01*
X557286Y480808D01*
X557316Y480873D01*
X557322Y480925D01*
X557338Y480975D01*
X557336Y481046D01*
X557344Y481117D01*
X557333Y481168D01*
X557331Y481220D01*
X557307Y481288D01*
X557291Y481358D01*
X557265Y481403D01*
X557247Y481451D01*
X557202Y481507D01*
X557165Y481569D01*
X557126Y481603D01*
X557093Y481643D01*
X557033Y481682D01*
X556978Y481729D01*
X556930Y481748D01*
X556886Y481776D01*
X556817Y481794D01*
X556750Y481821D01*
X556679Y481829D01*
X556648Y481837D01*
X556624Y481835D01*
X556583Y481839D01*
X53017Y481839D01*
X52946Y481828D01*
X52874Y481826D01*
X52825Y481808D01*
X52774Y481800D01*
X52711Y481766D01*
X52643Y481741D01*
X52603Y481709D01*
X52557Y481684D01*
X52507Y481632D01*
X52451Y481588D01*
X52423Y481544D01*
X52387Y481506D01*
X52357Y481441D01*
X52318Y481381D01*
X52305Y481330D01*
X52284Y481283D01*
X52276Y481212D01*
X52258Y481142D01*
X52262Y481090D01*
X52256Y481039D01*
X52272Y480968D01*
X52277Y480897D01*
X52298Y480849D01*
X52309Y480798D01*
X52345Y480737D01*
X52374Y480671D01*
X52418Y480615D01*
X52435Y480587D01*
X52453Y480572D01*
X52478Y480540D01*
X53092Y479926D01*
X56603Y473845D01*
X58421Y467061D01*
X58421Y460039D01*
X56603Y453255D01*
X53092Y447174D01*
X48126Y442208D01*
X42045Y438697D01*
X35261Y436879D01*
X28239Y436879D01*
X21455Y438697D01*
X15374Y442208D01*
X11460Y446122D01*
X11402Y446163D01*
X11350Y446213D01*
X11303Y446235D01*
X11261Y446265D01*
X11192Y446286D01*
X11127Y446316D01*
X11075Y446322D01*
X11025Y446338D01*
X10954Y446336D01*
X10883Y446344D01*
X10832Y446333D01*
X10780Y446331D01*
X10712Y446307D01*
X10642Y446291D01*
X10597Y446265D01*
X10549Y446247D01*
X10493Y446202D01*
X10431Y446165D01*
X10397Y446126D01*
X10357Y446093D01*
X10318Y446033D01*
X10271Y445978D01*
X10252Y445930D01*
X10224Y445886D01*
X10206Y445817D01*
X10179Y445750D01*
X10171Y445679D01*
X10163Y445648D01*
X10165Y445624D01*
X10161Y445583D01*
X10161Y49717D01*
X10162Y49709D01*
X10162Y49706D01*
X10164Y49694D01*
X10172Y49646D01*
X10174Y49574D01*
X10192Y49525D01*
X10200Y49474D01*
X10234Y49411D01*
X10259Y49343D01*
X10291Y49303D01*
X10316Y49257D01*
X10368Y49207D01*
X10412Y49151D01*
X10456Y49123D01*
X10494Y49087D01*
X10559Y49057D01*
X10619Y49018D01*
X10670Y49005D01*
X10717Y48984D01*
X10788Y48976D01*
X10858Y48958D01*
X10910Y48962D01*
X10961Y48956D01*
X11032Y48972D01*
X11103Y48977D01*
X11151Y48998D01*
X11202Y49009D01*
X11263Y49046D01*
X11329Y49074D01*
X11385Y49118D01*
X11413Y49135D01*
X11428Y49153D01*
X11460Y49178D01*
X15374Y53092D01*
X21455Y56603D01*
X28239Y58421D01*
X35261Y58421D01*
X42045Y56603D01*
X48126Y53092D01*
X53092Y48126D01*
X56603Y42045D01*
X58421Y35261D01*
X58421Y28239D01*
X56603Y21455D01*
X53092Y15374D01*
X49178Y11460D01*
X49137Y11402D01*
X49087Y11350D01*
X49065Y11303D01*
X49035Y11261D01*
X49014Y11192D01*
X48984Y11127D01*
X48978Y11075D01*
X48962Y11025D01*
X48964Y10954D01*
X48956Y10883D01*
X48967Y10832D01*
X48969Y10780D01*
X48993Y10712D01*
X49009Y10642D01*
X49035Y10597D01*
X49053Y10549D01*
X49098Y10493D01*
X49135Y10431D01*
X49174Y10397D01*
X49207Y10357D01*
X49267Y10318D01*
X49322Y10271D01*
X49370Y10252D01*
X49414Y10224D01*
X49483Y10206D01*
X49550Y10179D01*
X49621Y10171D01*
X49652Y10163D01*
X49676Y10165D01*
X49717Y10161D01*
X86368Y10161D01*
X86438Y10172D01*
G37*
%LPC*%
G36*
X239696Y163195D02*
X239696Y163195D01*
X236732Y164423D01*
X234463Y166692D01*
X233235Y169656D01*
X233235Y185944D01*
X234463Y188908D01*
X236732Y191177D01*
X238543Y191927D01*
X238643Y191989D01*
X238743Y192049D01*
X238747Y192054D01*
X238752Y192057D01*
X238827Y192147D01*
X238903Y192236D01*
X238905Y192242D01*
X238909Y192246D01*
X238951Y192355D01*
X238995Y192464D01*
X238996Y192471D01*
X238997Y192476D01*
X238998Y192494D01*
X239013Y192631D01*
X239013Y204147D01*
X253053Y218187D01*
X290837Y218187D01*
X290928Y218201D01*
X291018Y218209D01*
X291048Y218221D01*
X291080Y218226D01*
X291161Y218269D01*
X291245Y218305D01*
X291277Y218331D01*
X291298Y218342D01*
X291320Y218365D01*
X291376Y218410D01*
X380053Y307087D01*
X455937Y307087D01*
X456028Y307101D01*
X456118Y307109D01*
X456148Y307121D01*
X456180Y307126D01*
X456261Y307169D01*
X456345Y307205D01*
X456377Y307231D01*
X456398Y307242D01*
X456420Y307265D01*
X456476Y307310D01*
X467390Y318224D01*
X467443Y318298D01*
X467503Y318368D01*
X467515Y318398D01*
X467534Y318424D01*
X467561Y318511D01*
X467595Y318596D01*
X467599Y318637D01*
X467606Y318659D01*
X467605Y318691D01*
X467613Y318763D01*
X467613Y356547D01*
X480090Y369024D01*
X480143Y369098D01*
X480203Y369168D01*
X480215Y369198D01*
X480234Y369224D01*
X480261Y369311D01*
X480295Y369396D01*
X480299Y369437D01*
X480306Y369459D01*
X480305Y369491D01*
X480313Y369563D01*
X480313Y376620D01*
X480294Y376735D01*
X480277Y376851D01*
X480275Y376857D01*
X480274Y376863D01*
X480219Y376966D01*
X480166Y377071D01*
X480161Y377075D01*
X480158Y377080D01*
X480074Y377160D01*
X479990Y377243D01*
X479984Y377246D01*
X479980Y377250D01*
X479963Y377258D01*
X479843Y377324D01*
X477420Y378327D01*
X474847Y380900D01*
X473455Y384261D01*
X473455Y403139D01*
X474847Y406500D01*
X477420Y409073D01*
X480781Y410465D01*
X484419Y410465D01*
X487780Y409073D01*
X490353Y406500D01*
X491745Y403139D01*
X491745Y384261D01*
X490353Y380900D01*
X487780Y378327D01*
X485357Y377324D01*
X485257Y377262D01*
X485157Y377202D01*
X485153Y377197D01*
X485148Y377194D01*
X485073Y377104D01*
X484997Y377015D01*
X484995Y377009D01*
X484991Y377005D01*
X484949Y376896D01*
X484905Y376787D01*
X484904Y376780D01*
X484903Y376775D01*
X484902Y376757D01*
X484887Y376620D01*
X484887Y367353D01*
X472410Y354876D01*
X472357Y354802D01*
X472297Y354732D01*
X472285Y354702D01*
X472266Y354676D01*
X472239Y354589D01*
X472205Y354504D01*
X472201Y354463D01*
X472194Y354441D01*
X472195Y354409D01*
X472187Y354337D01*
X472187Y316553D01*
X458147Y302513D01*
X382263Y302513D01*
X382172Y302499D01*
X382082Y302491D01*
X382052Y302479D01*
X382020Y302474D01*
X381939Y302431D01*
X381855Y302395D01*
X381823Y302369D01*
X381802Y302358D01*
X381780Y302335D01*
X381724Y302290D01*
X293047Y213613D01*
X255263Y213613D01*
X255172Y213599D01*
X255082Y213591D01*
X255052Y213579D01*
X255020Y213574D01*
X254939Y213531D01*
X254855Y213495D01*
X254823Y213469D01*
X254802Y213458D01*
X254780Y213435D01*
X254724Y213390D01*
X243810Y202476D01*
X243757Y202402D01*
X243697Y202332D01*
X243685Y202302D01*
X243666Y202276D01*
X243639Y202189D01*
X243605Y202104D01*
X243601Y202063D01*
X243594Y202041D01*
X243595Y202009D01*
X243587Y201937D01*
X243587Y192631D01*
X243606Y192515D01*
X243623Y192400D01*
X243625Y192394D01*
X243626Y192388D01*
X243681Y192285D01*
X243734Y192180D01*
X243739Y192176D01*
X243742Y192171D01*
X243826Y192091D01*
X243910Y192008D01*
X243916Y192005D01*
X243920Y192001D01*
X243937Y191993D01*
X244057Y191927D01*
X245868Y191177D01*
X248137Y188908D01*
X249365Y185944D01*
X249365Y169656D01*
X248137Y166692D01*
X245868Y164423D01*
X242904Y163195D01*
X239696Y163195D01*
G37*
%LPD*%
%LPC*%
G36*
X62553Y150113D02*
X62553Y150113D01*
X48513Y164153D01*
X48513Y331147D01*
X86390Y369024D01*
X86443Y369098D01*
X86503Y369168D01*
X86515Y369198D01*
X86534Y369224D01*
X86561Y369311D01*
X86595Y369396D01*
X86599Y369437D01*
X86606Y369459D01*
X86605Y369491D01*
X86613Y369563D01*
X86613Y376620D01*
X86594Y376735D01*
X86577Y376851D01*
X86575Y376857D01*
X86574Y376863D01*
X86519Y376966D01*
X86466Y377071D01*
X86461Y377075D01*
X86458Y377080D01*
X86374Y377160D01*
X86290Y377243D01*
X86284Y377246D01*
X86280Y377250D01*
X86263Y377258D01*
X86143Y377324D01*
X83720Y378327D01*
X81147Y380900D01*
X79755Y384261D01*
X79755Y403139D01*
X81147Y406500D01*
X83720Y409073D01*
X87081Y410465D01*
X90719Y410465D01*
X94080Y409073D01*
X96653Y406500D01*
X98045Y403139D01*
X98045Y384261D01*
X96653Y380900D01*
X94080Y378327D01*
X91657Y377324D01*
X91557Y377262D01*
X91457Y377202D01*
X91453Y377197D01*
X91448Y377194D01*
X91373Y377104D01*
X91297Y377015D01*
X91295Y377009D01*
X91291Y377005D01*
X91249Y376896D01*
X91205Y376787D01*
X91204Y376780D01*
X91203Y376775D01*
X91202Y376757D01*
X91187Y376620D01*
X91187Y367353D01*
X53310Y329476D01*
X53257Y329402D01*
X53197Y329332D01*
X53185Y329302D01*
X53166Y329276D01*
X53139Y329189D01*
X53105Y329104D01*
X53101Y329063D01*
X53094Y329041D01*
X53095Y329009D01*
X53087Y328937D01*
X53087Y166363D01*
X53101Y166272D01*
X53109Y166182D01*
X53121Y166152D01*
X53126Y166120D01*
X53169Y166039D01*
X53205Y165955D01*
X53231Y165923D01*
X53242Y165902D01*
X53265Y165880D01*
X53310Y165824D01*
X64224Y154910D01*
X64298Y154857D01*
X64368Y154797D01*
X64398Y154785D01*
X64424Y154766D01*
X64511Y154739D01*
X64596Y154705D01*
X64637Y154701D01*
X64659Y154694D01*
X64691Y154695D01*
X64763Y154687D01*
X151137Y154687D01*
X151228Y154701D01*
X151318Y154709D01*
X151348Y154721D01*
X151380Y154726D01*
X151461Y154769D01*
X151545Y154805D01*
X151577Y154831D01*
X151598Y154842D01*
X151620Y154865D01*
X151676Y154910D01*
X160322Y163556D01*
X160334Y163572D01*
X160349Y163585D01*
X160405Y163672D01*
X160466Y163756D01*
X160472Y163775D01*
X160482Y163792D01*
X160508Y163892D01*
X160538Y163991D01*
X160538Y164011D01*
X160542Y164030D01*
X160534Y164133D01*
X160532Y164237D01*
X160525Y164256D01*
X160523Y164275D01*
X160483Y164370D01*
X160447Y164468D01*
X160435Y164483D01*
X160427Y164502D01*
X160322Y164633D01*
X158263Y166692D01*
X157035Y169656D01*
X157035Y185944D01*
X158263Y188908D01*
X160532Y191177D01*
X163496Y192405D01*
X166704Y192405D01*
X169668Y191177D01*
X171937Y188908D01*
X173165Y185944D01*
X173165Y169656D01*
X171937Y166692D01*
X169668Y164423D01*
X166678Y163184D01*
X166654Y163181D01*
X166564Y163173D01*
X166534Y163161D01*
X166502Y163156D01*
X166421Y163113D01*
X166337Y163077D01*
X166305Y163051D01*
X166284Y163040D01*
X166263Y163018D01*
X166261Y163017D01*
X166257Y163013D01*
X166206Y162972D01*
X153347Y150113D01*
X62553Y150113D01*
G37*
%LPD*%
%LPC*%
G36*
X188896Y163195D02*
X188896Y163195D01*
X185932Y164423D01*
X183663Y166692D01*
X182435Y169656D01*
X182435Y185944D01*
X183663Y188908D01*
X185932Y191177D01*
X187743Y191927D01*
X187843Y191989D01*
X187943Y192049D01*
X187947Y192054D01*
X187952Y192057D01*
X188027Y192147D01*
X188103Y192236D01*
X188105Y192242D01*
X188109Y192246D01*
X188151Y192355D01*
X188195Y192464D01*
X188196Y192471D01*
X188197Y192476D01*
X188198Y192494D01*
X188213Y192631D01*
X188213Y204147D01*
X227653Y243587D01*
X265437Y243587D01*
X265528Y243601D01*
X265618Y243609D01*
X265648Y243621D01*
X265680Y243626D01*
X265761Y243669D01*
X265845Y243705D01*
X265877Y243731D01*
X265898Y243742D01*
X265920Y243765D01*
X265976Y243810D01*
X302290Y280124D01*
X302343Y280198D01*
X302403Y280268D01*
X302415Y280298D01*
X302434Y280324D01*
X302461Y280411D01*
X302495Y280496D01*
X302499Y280537D01*
X302506Y280559D01*
X302505Y280591D01*
X302513Y280663D01*
X302513Y341637D01*
X302499Y341728D01*
X302491Y341818D01*
X302479Y341848D01*
X302474Y341880D01*
X302431Y341961D01*
X302395Y342045D01*
X302369Y342077D01*
X302358Y342098D01*
X302335Y342120D01*
X302290Y342176D01*
X291376Y353090D01*
X291302Y353143D01*
X291232Y353203D01*
X291202Y353215D01*
X291176Y353234D01*
X291089Y353261D01*
X291004Y353295D01*
X290963Y353299D01*
X290941Y353306D01*
X290909Y353305D01*
X290837Y353313D01*
X227653Y353313D01*
X213613Y367353D01*
X213613Y376620D01*
X213594Y376735D01*
X213577Y376851D01*
X213575Y376857D01*
X213574Y376863D01*
X213519Y376966D01*
X213466Y377071D01*
X213461Y377075D01*
X213458Y377080D01*
X213374Y377160D01*
X213290Y377243D01*
X213284Y377246D01*
X213280Y377250D01*
X213263Y377258D01*
X213143Y377324D01*
X210720Y378327D01*
X208147Y380900D01*
X206755Y384261D01*
X206755Y403139D01*
X208147Y406500D01*
X210720Y409073D01*
X214081Y410465D01*
X217719Y410465D01*
X221080Y409073D01*
X223653Y406500D01*
X225045Y403139D01*
X225045Y384261D01*
X223653Y380900D01*
X221080Y378327D01*
X218657Y377324D01*
X218557Y377262D01*
X218457Y377202D01*
X218453Y377197D01*
X218448Y377194D01*
X218373Y377104D01*
X218297Y377015D01*
X218295Y377009D01*
X218291Y377005D01*
X218249Y376896D01*
X218205Y376787D01*
X218204Y376780D01*
X218203Y376775D01*
X218202Y376757D01*
X218187Y376620D01*
X218187Y369563D01*
X218201Y369472D01*
X218209Y369382D01*
X218221Y369352D01*
X218226Y369320D01*
X218269Y369239D01*
X218305Y369155D01*
X218331Y369123D01*
X218342Y369102D01*
X218365Y369080D01*
X218410Y369024D01*
X229324Y358110D01*
X229398Y358057D01*
X229468Y357997D01*
X229498Y357985D01*
X229524Y357966D01*
X229611Y357939D01*
X229696Y357905D01*
X229737Y357901D01*
X229759Y357894D01*
X229791Y357895D01*
X229863Y357887D01*
X293047Y357887D01*
X307087Y343847D01*
X307087Y278453D01*
X267647Y239013D01*
X229863Y239013D01*
X229772Y238999D01*
X229682Y238991D01*
X229652Y238979D01*
X229620Y238974D01*
X229539Y238931D01*
X229455Y238895D01*
X229423Y238869D01*
X229402Y238858D01*
X229380Y238835D01*
X229324Y238790D01*
X193010Y202476D01*
X192957Y202402D01*
X192897Y202332D01*
X192885Y202302D01*
X192866Y202276D01*
X192839Y202189D01*
X192805Y202104D01*
X192801Y202063D01*
X192794Y202041D01*
X192795Y202009D01*
X192787Y201937D01*
X192787Y192631D01*
X192806Y192515D01*
X192823Y192400D01*
X192825Y192394D01*
X192826Y192388D01*
X192881Y192285D01*
X192934Y192180D01*
X192939Y192176D01*
X192942Y192171D01*
X193026Y192091D01*
X193110Y192008D01*
X193116Y192005D01*
X193120Y192001D01*
X193137Y191993D01*
X193257Y191927D01*
X195068Y191177D01*
X197337Y188908D01*
X198565Y185944D01*
X198565Y169656D01*
X197337Y166692D01*
X195068Y164423D01*
X192104Y163195D01*
X188896Y163195D01*
G37*
%LPD*%
%LPC*%
G36*
X214296Y163195D02*
X214296Y163195D01*
X211332Y164423D01*
X209063Y166692D01*
X207835Y169656D01*
X207835Y185944D01*
X209063Y188908D01*
X211332Y191177D01*
X213143Y191927D01*
X213243Y191989D01*
X213343Y192049D01*
X213347Y192054D01*
X213352Y192057D01*
X213427Y192147D01*
X213503Y192236D01*
X213505Y192242D01*
X213509Y192246D01*
X213551Y192355D01*
X213595Y192464D01*
X213596Y192471D01*
X213597Y192476D01*
X213598Y192494D01*
X213613Y192631D01*
X213613Y204147D01*
X240353Y230887D01*
X278137Y230887D01*
X278228Y230901D01*
X278318Y230909D01*
X278348Y230921D01*
X278380Y230926D01*
X278461Y230969D01*
X278545Y231005D01*
X278577Y231031D01*
X278598Y231042D01*
X278620Y231065D01*
X278676Y231110D01*
X327690Y280124D01*
X327743Y280198D01*
X327803Y280268D01*
X327815Y280298D01*
X327834Y280324D01*
X327861Y280411D01*
X327895Y280496D01*
X327899Y280537D01*
X327906Y280559D01*
X327905Y280591D01*
X327913Y280662D01*
X327913Y343847D01*
X329476Y345410D01*
X353090Y369024D01*
X353143Y369098D01*
X353203Y369168D01*
X353215Y369198D01*
X353234Y369224D01*
X353261Y369311D01*
X353295Y369396D01*
X353299Y369437D01*
X353306Y369459D01*
X353305Y369491D01*
X353313Y369562D01*
X353313Y376620D01*
X353294Y376735D01*
X353277Y376851D01*
X353275Y376857D01*
X353274Y376863D01*
X353219Y376966D01*
X353166Y377071D01*
X353161Y377075D01*
X353158Y377080D01*
X353074Y377160D01*
X352990Y377243D01*
X352984Y377246D01*
X352980Y377250D01*
X352963Y377258D01*
X352843Y377324D01*
X350420Y378327D01*
X347847Y380900D01*
X346455Y384261D01*
X346455Y403139D01*
X347847Y406500D01*
X350420Y409073D01*
X353781Y410465D01*
X357419Y410465D01*
X360780Y409073D01*
X363353Y406500D01*
X364745Y403139D01*
X364745Y384261D01*
X363353Y380900D01*
X360780Y378327D01*
X358357Y377324D01*
X358257Y377262D01*
X358157Y377202D01*
X358153Y377197D01*
X358148Y377194D01*
X358073Y377104D01*
X357997Y377015D01*
X357995Y377009D01*
X357991Y377005D01*
X357949Y376896D01*
X357905Y376787D01*
X357904Y376780D01*
X357903Y376775D01*
X357902Y376757D01*
X357887Y376620D01*
X357887Y367353D01*
X356324Y365790D01*
X332710Y342176D01*
X332657Y342102D01*
X332597Y342032D01*
X332585Y342002D01*
X332566Y341976D01*
X332539Y341889D01*
X332505Y341804D01*
X332501Y341763D01*
X332494Y341741D01*
X332495Y341709D01*
X332487Y341638D01*
X332487Y278453D01*
X330924Y276890D01*
X280347Y226313D01*
X242563Y226313D01*
X242472Y226299D01*
X242382Y226291D01*
X242352Y226279D01*
X242320Y226274D01*
X242239Y226231D01*
X242155Y226195D01*
X242123Y226169D01*
X242102Y226158D01*
X242080Y226135D01*
X242024Y226090D01*
X218410Y202476D01*
X218357Y202402D01*
X218297Y202332D01*
X218285Y202302D01*
X218266Y202276D01*
X218239Y202189D01*
X218205Y202104D01*
X218201Y202063D01*
X218194Y202041D01*
X218195Y202009D01*
X218187Y201937D01*
X218187Y192631D01*
X218206Y192515D01*
X218223Y192400D01*
X218225Y192394D01*
X218226Y192388D01*
X218281Y192285D01*
X218334Y192180D01*
X218339Y192176D01*
X218342Y192171D01*
X218426Y192091D01*
X218510Y192008D01*
X218516Y192005D01*
X218520Y192001D01*
X218537Y191993D01*
X218657Y191927D01*
X220468Y191177D01*
X222737Y188908D01*
X223965Y185944D01*
X223965Y169656D01*
X222737Y166692D01*
X220468Y164423D01*
X217504Y163195D01*
X214296Y163195D01*
G37*
%LPD*%
%LPC*%
G36*
X79461Y117855D02*
X79461Y117855D01*
X76100Y119247D01*
X73527Y121820D01*
X72135Y125181D01*
X72135Y128819D01*
X73527Y132180D01*
X76100Y134753D01*
X79461Y136145D01*
X98339Y136145D01*
X101700Y134753D01*
X104273Y132180D01*
X105276Y129757D01*
X105338Y129657D01*
X105398Y129557D01*
X105403Y129553D01*
X105406Y129548D01*
X105496Y129473D01*
X105585Y129397D01*
X105591Y129395D01*
X105595Y129391D01*
X105704Y129349D01*
X105813Y129305D01*
X105820Y129304D01*
X105825Y129303D01*
X105843Y129302D01*
X105980Y129287D01*
X113037Y129287D01*
X113128Y129301D01*
X113218Y129309D01*
X113248Y129321D01*
X113280Y129326D01*
X113361Y129369D01*
X113445Y129405D01*
X113477Y129431D01*
X113498Y129442D01*
X113520Y129465D01*
X113576Y129510D01*
X126053Y141987D01*
X163837Y141987D01*
X163928Y142001D01*
X164018Y142009D01*
X164048Y142021D01*
X164080Y142026D01*
X164161Y142069D01*
X164245Y142105D01*
X164277Y142131D01*
X164298Y142142D01*
X164320Y142165D01*
X164376Y142210D01*
X175290Y153124D01*
X175343Y153198D01*
X175403Y153268D01*
X175415Y153298D01*
X175434Y153324D01*
X175461Y153411D01*
X175495Y153496D01*
X175499Y153537D01*
X175506Y153559D01*
X175505Y153591D01*
X175513Y153663D01*
X175513Y290837D01*
X175499Y290928D01*
X175491Y291018D01*
X175479Y291048D01*
X175474Y291080D01*
X175431Y291161D01*
X175395Y291245D01*
X175369Y291277D01*
X175358Y291298D01*
X175335Y291320D01*
X175290Y291376D01*
X162813Y303853D01*
X162813Y315369D01*
X162794Y315484D01*
X162777Y315600D01*
X162775Y315606D01*
X162774Y315612D01*
X162719Y315715D01*
X162666Y315820D01*
X162661Y315824D01*
X162658Y315829D01*
X162574Y315909D01*
X162490Y315992D01*
X162484Y315995D01*
X162480Y315999D01*
X162463Y316007D01*
X162343Y316073D01*
X160532Y316823D01*
X158263Y319092D01*
X157035Y322056D01*
X157035Y338344D01*
X158263Y341308D01*
X160532Y343577D01*
X163496Y344805D01*
X166704Y344805D01*
X169668Y343577D01*
X171937Y341308D01*
X173165Y338344D01*
X173165Y322056D01*
X171937Y319092D01*
X169668Y316823D01*
X167857Y316073D01*
X167757Y316011D01*
X167657Y315951D01*
X167653Y315946D01*
X167648Y315943D01*
X167573Y315853D01*
X167497Y315764D01*
X167495Y315758D01*
X167491Y315754D01*
X167449Y315645D01*
X167405Y315536D01*
X167404Y315529D01*
X167403Y315524D01*
X167402Y315506D01*
X167387Y315369D01*
X167387Y306063D01*
X167401Y305972D01*
X167409Y305882D01*
X167421Y305852D01*
X167426Y305820D01*
X167469Y305739D01*
X167505Y305655D01*
X167531Y305623D01*
X167542Y305602D01*
X167565Y305580D01*
X167610Y305524D01*
X180087Y293047D01*
X180087Y151453D01*
X166047Y137413D01*
X128263Y137413D01*
X128172Y137399D01*
X128082Y137391D01*
X128052Y137379D01*
X128020Y137374D01*
X127939Y137331D01*
X127855Y137295D01*
X127823Y137269D01*
X127802Y137258D01*
X127780Y137235D01*
X127724Y137190D01*
X115247Y124713D01*
X105980Y124713D01*
X105865Y124694D01*
X105749Y124677D01*
X105743Y124675D01*
X105737Y124674D01*
X105634Y124619D01*
X105529Y124566D01*
X105525Y124561D01*
X105520Y124558D01*
X105440Y124474D01*
X105357Y124390D01*
X105354Y124384D01*
X105350Y124380D01*
X105342Y124363D01*
X105276Y124243D01*
X104273Y121820D01*
X101700Y119247D01*
X98339Y117855D01*
X79461Y117855D01*
G37*
%LPD*%
%LPC*%
G36*
X493481Y59435D02*
X493481Y59435D01*
X490120Y60827D01*
X487547Y63400D01*
X486155Y66761D01*
X486155Y85639D01*
X487547Y89000D01*
X490120Y91573D01*
X492543Y92576D01*
X492643Y92638D01*
X492743Y92698D01*
X492747Y92703D01*
X492752Y92706D01*
X492827Y92796D01*
X492903Y92885D01*
X492905Y92891D01*
X492909Y92895D01*
X492951Y93004D01*
X492995Y93113D01*
X492996Y93120D01*
X492997Y93125D01*
X492998Y93143D01*
X493013Y93280D01*
X493013Y100337D01*
X492999Y100428D01*
X492991Y100518D01*
X492979Y100548D01*
X492974Y100580D01*
X492931Y100661D01*
X492895Y100745D01*
X492869Y100777D01*
X492858Y100798D01*
X492835Y100820D01*
X492790Y100876D01*
X469176Y124490D01*
X469102Y124543D01*
X469032Y124603D01*
X469002Y124615D01*
X468976Y124634D01*
X468889Y124661D01*
X468804Y124695D01*
X468763Y124699D01*
X468741Y124706D01*
X468709Y124705D01*
X468637Y124713D01*
X316553Y124713D01*
X289813Y151453D01*
X289813Y162969D01*
X289794Y163084D01*
X289777Y163200D01*
X289775Y163206D01*
X289774Y163212D01*
X289719Y163315D01*
X289666Y163420D01*
X289661Y163424D01*
X289658Y163429D01*
X289574Y163509D01*
X289490Y163592D01*
X289484Y163595D01*
X289480Y163599D01*
X289463Y163607D01*
X289343Y163673D01*
X287532Y164423D01*
X285263Y166692D01*
X284035Y169656D01*
X284035Y185944D01*
X285263Y188908D01*
X287532Y191177D01*
X290496Y192405D01*
X293704Y192405D01*
X296668Y191177D01*
X298937Y188908D01*
X300165Y185944D01*
X300165Y169656D01*
X298937Y166692D01*
X296668Y164423D01*
X294857Y163673D01*
X294757Y163611D01*
X294657Y163551D01*
X294653Y163546D01*
X294648Y163543D01*
X294573Y163453D01*
X294497Y163364D01*
X294495Y163358D01*
X294491Y163354D01*
X294449Y163245D01*
X294405Y163136D01*
X294404Y163129D01*
X294403Y163124D01*
X294402Y163106D01*
X294387Y162969D01*
X294387Y153663D01*
X294401Y153572D01*
X294409Y153482D01*
X294421Y153452D01*
X294426Y153420D01*
X294469Y153339D01*
X294505Y153255D01*
X294531Y153223D01*
X294542Y153202D01*
X294565Y153180D01*
X294610Y153124D01*
X318224Y129510D01*
X318298Y129457D01*
X318368Y129397D01*
X318398Y129385D01*
X318424Y129366D01*
X318511Y129339D01*
X318596Y129305D01*
X318637Y129301D01*
X318659Y129294D01*
X318691Y129295D01*
X318763Y129287D01*
X470847Y129287D01*
X497587Y102547D01*
X497587Y93280D01*
X497606Y93165D01*
X497623Y93049D01*
X497625Y93043D01*
X497626Y93037D01*
X497681Y92934D01*
X497734Y92829D01*
X497739Y92825D01*
X497742Y92820D01*
X497826Y92740D01*
X497910Y92657D01*
X497916Y92654D01*
X497920Y92650D01*
X497937Y92642D01*
X498057Y92576D01*
X500480Y91573D01*
X503053Y89000D01*
X504445Y85639D01*
X504445Y66761D01*
X503053Y63400D01*
X500480Y60827D01*
X497119Y59435D01*
X493481Y59435D01*
G37*
%LPD*%
%LPC*%
G36*
X391881Y59435D02*
X391881Y59435D01*
X388520Y60827D01*
X385947Y63400D01*
X384555Y66761D01*
X384555Y85639D01*
X385947Y89000D01*
X388520Y91573D01*
X390943Y92576D01*
X391043Y92638D01*
X391143Y92698D01*
X391147Y92703D01*
X391152Y92706D01*
X391227Y92796D01*
X391303Y92885D01*
X391305Y92891D01*
X391309Y92895D01*
X391351Y93004D01*
X391395Y93113D01*
X391396Y93120D01*
X391397Y93125D01*
X391398Y93143D01*
X391413Y93280D01*
X391413Y100337D01*
X391399Y100428D01*
X391391Y100518D01*
X391379Y100548D01*
X391374Y100580D01*
X391331Y100661D01*
X391295Y100745D01*
X391269Y100777D01*
X391258Y100798D01*
X391235Y100820D01*
X391190Y100876D01*
X380276Y111790D01*
X380202Y111843D01*
X380132Y111903D01*
X380102Y111915D01*
X380076Y111934D01*
X379989Y111961D01*
X379904Y111995D01*
X379863Y111999D01*
X379841Y112006D01*
X379809Y112005D01*
X379737Y112013D01*
X303853Y112013D01*
X264413Y151453D01*
X264413Y162969D01*
X264394Y163084D01*
X264377Y163200D01*
X264375Y163206D01*
X264374Y163212D01*
X264319Y163315D01*
X264266Y163420D01*
X264261Y163424D01*
X264258Y163429D01*
X264174Y163509D01*
X264090Y163592D01*
X264084Y163595D01*
X264080Y163599D01*
X264063Y163607D01*
X263943Y163673D01*
X262132Y164423D01*
X259863Y166692D01*
X258635Y169656D01*
X258635Y185944D01*
X259863Y188908D01*
X262132Y191177D01*
X265096Y192405D01*
X268304Y192405D01*
X271268Y191177D01*
X273537Y188908D01*
X274765Y185944D01*
X274765Y169656D01*
X273537Y166692D01*
X271268Y164423D01*
X269457Y163673D01*
X269357Y163611D01*
X269257Y163551D01*
X269253Y163546D01*
X269248Y163543D01*
X269173Y163453D01*
X269097Y163364D01*
X269095Y163358D01*
X269091Y163354D01*
X269049Y163245D01*
X269005Y163136D01*
X269004Y163129D01*
X269003Y163124D01*
X269002Y163106D01*
X268987Y162969D01*
X268987Y153663D01*
X269001Y153572D01*
X269009Y153482D01*
X269021Y153452D01*
X269026Y153420D01*
X269069Y153339D01*
X269105Y153255D01*
X269131Y153223D01*
X269142Y153202D01*
X269165Y153180D01*
X269210Y153124D01*
X305524Y116810D01*
X305598Y116757D01*
X305668Y116697D01*
X305698Y116685D01*
X305724Y116666D01*
X305811Y116639D01*
X305896Y116605D01*
X305937Y116601D01*
X305959Y116594D01*
X305991Y116595D01*
X306063Y116587D01*
X381947Y116587D01*
X395987Y102547D01*
X395987Y93280D01*
X396006Y93165D01*
X396023Y93049D01*
X396025Y93043D01*
X396026Y93037D01*
X396081Y92934D01*
X396134Y92829D01*
X396139Y92825D01*
X396142Y92820D01*
X396226Y92740D01*
X396310Y92657D01*
X396316Y92654D01*
X396320Y92650D01*
X396337Y92642D01*
X396457Y92576D01*
X398880Y91573D01*
X401453Y89000D01*
X402845Y85639D01*
X402845Y66761D01*
X401453Y63400D01*
X398880Y60827D01*
X395519Y59435D01*
X391881Y59435D01*
G37*
%LPD*%
%LPC*%
G36*
X79461Y92455D02*
X79461Y92455D01*
X76100Y93847D01*
X73527Y96420D01*
X72135Y99781D01*
X72135Y103419D01*
X73527Y106780D01*
X76100Y109353D01*
X79461Y110745D01*
X98339Y110745D01*
X101700Y109353D01*
X104273Y106780D01*
X105665Y103419D01*
X105665Y99781D01*
X104273Y96420D01*
X101700Y93847D01*
X98339Y92455D01*
X79461Y92455D01*
G37*
%LPD*%
%LPC*%
G36*
X264881Y376935D02*
X264881Y376935D01*
X261520Y378327D01*
X258947Y380900D01*
X257555Y384261D01*
X257555Y403139D01*
X258947Y406500D01*
X261520Y409073D01*
X264881Y410465D01*
X268519Y410465D01*
X271880Y409073D01*
X274453Y406500D01*
X275845Y403139D01*
X275845Y384261D01*
X274453Y380900D01*
X271880Y378327D01*
X268519Y376935D01*
X264881Y376935D01*
G37*
%LPD*%
%LPC*%
G36*
X137881Y376935D02*
X137881Y376935D01*
X134520Y378327D01*
X131947Y380900D01*
X130555Y384261D01*
X130555Y403139D01*
X131947Y406500D01*
X134520Y409073D01*
X137881Y410465D01*
X141519Y410465D01*
X144880Y409073D01*
X147453Y406500D01*
X148845Y403139D01*
X148845Y384261D01*
X147453Y380900D01*
X144880Y378327D01*
X141519Y376935D01*
X137881Y376935D01*
G37*
%LPD*%
%LPC*%
G36*
X290281Y59435D02*
X290281Y59435D01*
X286920Y60827D01*
X284347Y63400D01*
X282955Y66761D01*
X282955Y85639D01*
X284347Y89000D01*
X286920Y91573D01*
X290281Y92965D01*
X293919Y92965D01*
X297280Y91573D01*
X299853Y89000D01*
X301245Y85639D01*
X301245Y66761D01*
X299853Y63400D01*
X297280Y60827D01*
X293919Y59435D01*
X290281Y59435D01*
G37*
%LPD*%
%LPC*%
G36*
X214081Y59435D02*
X214081Y59435D01*
X210720Y60827D01*
X208147Y63400D01*
X206755Y66761D01*
X206755Y85639D01*
X208147Y89000D01*
X210720Y91573D01*
X214081Y92965D01*
X217719Y92965D01*
X221080Y91573D01*
X223653Y89000D01*
X225045Y85639D01*
X225045Y66761D01*
X223653Y63400D01*
X221080Y60827D01*
X217719Y59435D01*
X214081Y59435D01*
G37*
%LPD*%
%LPC*%
G36*
X531581Y376935D02*
X531581Y376935D01*
X528220Y378327D01*
X525647Y380900D01*
X524255Y384261D01*
X524255Y403139D01*
X525647Y406500D01*
X528220Y409073D01*
X531581Y410465D01*
X535219Y410465D01*
X538580Y409073D01*
X541153Y406500D01*
X542545Y403139D01*
X542545Y384261D01*
X541153Y380900D01*
X538580Y378327D01*
X535219Y376935D01*
X531581Y376935D01*
G37*
%LPD*%
%LPC*%
G36*
X188681Y59435D02*
X188681Y59435D01*
X185320Y60827D01*
X182747Y63400D01*
X181355Y66761D01*
X181355Y85639D01*
X182747Y89000D01*
X185320Y91573D01*
X188681Y92965D01*
X192319Y92965D01*
X195680Y91573D01*
X198253Y89000D01*
X199645Y85639D01*
X199645Y66761D01*
X198253Y63400D01*
X195680Y60827D01*
X192319Y59435D01*
X188681Y59435D01*
G37*
%LPD*%
%LPC*%
G36*
X404581Y376935D02*
X404581Y376935D01*
X401220Y378327D01*
X398647Y380900D01*
X397255Y384261D01*
X397255Y403139D01*
X398647Y406500D01*
X401220Y409073D01*
X404581Y410465D01*
X408219Y410465D01*
X411580Y409073D01*
X414153Y406500D01*
X415545Y403139D01*
X415545Y384261D01*
X414153Y380900D01*
X411580Y378327D01*
X408219Y376935D01*
X404581Y376935D01*
G37*
%LPD*%
%LPC*%
G36*
X138096Y163195D02*
X138096Y163195D01*
X135132Y164423D01*
X132863Y166692D01*
X131635Y169656D01*
X131635Y185944D01*
X132863Y188908D01*
X135132Y191177D01*
X138096Y192405D01*
X141304Y192405D01*
X144268Y191177D01*
X146537Y188908D01*
X147765Y185944D01*
X147765Y169656D01*
X146537Y166692D01*
X144268Y164423D01*
X141304Y163195D01*
X138096Y163195D01*
G37*
%LPD*%
%LPC*%
G36*
X112696Y163195D02*
X112696Y163195D01*
X109732Y164423D01*
X107463Y166692D01*
X106235Y169656D01*
X106235Y185944D01*
X107463Y188908D01*
X109732Y191177D01*
X112696Y192405D01*
X115904Y192405D01*
X118868Y191177D01*
X121137Y188908D01*
X122365Y185944D01*
X122365Y169656D01*
X121137Y166692D01*
X118868Y164423D01*
X115904Y163195D01*
X112696Y163195D01*
G37*
%LPD*%
%LPC*%
G36*
X87296Y163195D02*
X87296Y163195D01*
X84332Y164423D01*
X82063Y166692D01*
X80835Y169656D01*
X80835Y185944D01*
X82063Y188908D01*
X84332Y191177D01*
X87296Y192405D01*
X90504Y192405D01*
X93468Y191177D01*
X95737Y188908D01*
X96965Y185944D01*
X96965Y169656D01*
X95737Y166692D01*
X93468Y164423D01*
X90504Y163195D01*
X87296Y163195D01*
G37*
%LPD*%
%LPC*%
G36*
X417496Y163195D02*
X417496Y163195D01*
X414532Y164423D01*
X412263Y166692D01*
X411035Y169656D01*
X411035Y185944D01*
X412263Y188908D01*
X414532Y191177D01*
X417496Y192405D01*
X420704Y192405D01*
X423668Y191177D01*
X425937Y188908D01*
X427165Y185944D01*
X427165Y169656D01*
X425937Y166692D01*
X423668Y164423D01*
X420704Y163195D01*
X417496Y163195D01*
G37*
%LPD*%
%LPC*%
G36*
X315896Y163195D02*
X315896Y163195D01*
X312932Y164423D01*
X310663Y166692D01*
X309435Y169656D01*
X309435Y185944D01*
X310663Y188908D01*
X312932Y191177D01*
X315896Y192405D01*
X319104Y192405D01*
X322068Y191177D01*
X324337Y188908D01*
X325565Y185944D01*
X325565Y169656D01*
X324337Y166692D01*
X322068Y164423D01*
X319104Y163195D01*
X315896Y163195D01*
G37*
%LPD*%
%LPC*%
G36*
X341296Y163195D02*
X341296Y163195D01*
X338332Y164423D01*
X336063Y166692D01*
X334835Y169656D01*
X334835Y185944D01*
X336063Y188908D01*
X338332Y191177D01*
X341296Y192405D01*
X344504Y192405D01*
X347468Y191177D01*
X349737Y188908D01*
X350965Y185944D01*
X350965Y169656D01*
X349737Y166692D01*
X347468Y164423D01*
X344504Y163195D01*
X341296Y163195D01*
G37*
%LPD*%
%LPC*%
G36*
X392096Y163195D02*
X392096Y163195D01*
X389132Y164423D01*
X386863Y166692D01*
X385635Y169656D01*
X385635Y185944D01*
X386863Y188908D01*
X389132Y191177D01*
X392096Y192405D01*
X395304Y192405D01*
X398268Y191177D01*
X400537Y188908D01*
X401765Y185944D01*
X401765Y169656D01*
X400537Y166692D01*
X398268Y164423D01*
X395304Y163195D01*
X392096Y163195D01*
G37*
%LPD*%
%LPC*%
G36*
X138096Y315595D02*
X138096Y315595D01*
X135132Y316823D01*
X132863Y319092D01*
X131635Y322056D01*
X131635Y338344D01*
X132863Y341308D01*
X135132Y343577D01*
X138096Y344805D01*
X141304Y344805D01*
X144268Y343577D01*
X146537Y341308D01*
X147765Y338344D01*
X147765Y322056D01*
X146537Y319092D01*
X144268Y316823D01*
X141304Y315595D01*
X138096Y315595D01*
G37*
%LPD*%
%LPC*%
G36*
X87296Y315595D02*
X87296Y315595D01*
X84332Y316823D01*
X82063Y319092D01*
X80835Y322056D01*
X80835Y338344D01*
X82063Y341308D01*
X84332Y343577D01*
X87296Y344805D01*
X90504Y344805D01*
X93468Y343577D01*
X95737Y341308D01*
X96965Y338344D01*
X96965Y322056D01*
X95737Y319092D01*
X93468Y316823D01*
X90504Y315595D01*
X87296Y315595D01*
G37*
%LPD*%
%LPC*%
G36*
X188896Y315595D02*
X188896Y315595D01*
X185932Y316823D01*
X183663Y319092D01*
X182435Y322056D01*
X182435Y338344D01*
X183663Y341308D01*
X185932Y343577D01*
X188896Y344805D01*
X192104Y344805D01*
X195068Y343577D01*
X197337Y341308D01*
X198565Y338344D01*
X198565Y322056D01*
X197337Y319092D01*
X195068Y316823D01*
X192104Y315595D01*
X188896Y315595D01*
G37*
%LPD*%
%LPC*%
G36*
X112696Y315595D02*
X112696Y315595D01*
X109732Y316823D01*
X107463Y319092D01*
X106235Y322056D01*
X106235Y338344D01*
X107463Y341308D01*
X109732Y343577D01*
X112696Y344805D01*
X115904Y344805D01*
X118868Y343577D01*
X121137Y341308D01*
X122365Y338344D01*
X122365Y322056D01*
X121137Y319092D01*
X118868Y316823D01*
X115904Y315595D01*
X112696Y315595D01*
G37*
%LPD*%
%LPC*%
G36*
X366696Y315595D02*
X366696Y315595D01*
X363732Y316823D01*
X361463Y319092D01*
X360235Y322056D01*
X360235Y338344D01*
X361463Y341308D01*
X363732Y343577D01*
X366696Y344805D01*
X369904Y344805D01*
X372868Y343577D01*
X375137Y341308D01*
X376365Y338344D01*
X376365Y322056D01*
X375137Y319092D01*
X372868Y316823D01*
X369904Y315595D01*
X366696Y315595D01*
G37*
%LPD*%
%LPC*%
G36*
X214296Y315595D02*
X214296Y315595D01*
X211332Y316823D01*
X209063Y319092D01*
X207835Y322056D01*
X207835Y338344D01*
X209063Y341308D01*
X211332Y343577D01*
X214296Y344805D01*
X217504Y344805D01*
X220468Y343577D01*
X222737Y341308D01*
X223965Y338344D01*
X223965Y322056D01*
X222737Y319092D01*
X220468Y316823D01*
X217504Y315595D01*
X214296Y315595D01*
G37*
%LPD*%
%LPC*%
G36*
X239696Y315595D02*
X239696Y315595D01*
X236732Y316823D01*
X234463Y319092D01*
X233235Y322056D01*
X233235Y338344D01*
X234463Y341308D01*
X236732Y343577D01*
X239696Y344805D01*
X242904Y344805D01*
X245868Y343577D01*
X248137Y341308D01*
X249365Y338344D01*
X249365Y322056D01*
X248137Y319092D01*
X245868Y316823D01*
X242904Y315595D01*
X239696Y315595D01*
G37*
%LPD*%
%LPC*%
G36*
X442896Y163195D02*
X442896Y163195D01*
X439932Y164423D01*
X437663Y166692D01*
X436435Y169656D01*
X436435Y185944D01*
X437663Y188908D01*
X439932Y191177D01*
X442896Y192405D01*
X446104Y192405D01*
X449068Y191177D01*
X451337Y188908D01*
X452565Y185944D01*
X452565Y169656D01*
X451337Y166692D01*
X449068Y164423D01*
X446104Y163195D01*
X442896Y163195D01*
G37*
%LPD*%
%LPC*%
G36*
X392096Y315595D02*
X392096Y315595D01*
X389132Y316823D01*
X386863Y319092D01*
X385635Y322056D01*
X385635Y338344D01*
X386863Y341308D01*
X389132Y343577D01*
X392096Y344805D01*
X395304Y344805D01*
X398268Y343577D01*
X400537Y341308D01*
X401765Y338344D01*
X401765Y322056D01*
X400537Y319092D01*
X398268Y316823D01*
X395304Y315595D01*
X392096Y315595D01*
G37*
%LPD*%
%LPC*%
G36*
X290496Y315595D02*
X290496Y315595D01*
X287532Y316823D01*
X285263Y319092D01*
X284035Y322056D01*
X284035Y338344D01*
X285263Y341308D01*
X287532Y343577D01*
X290496Y344805D01*
X293704Y344805D01*
X296668Y343577D01*
X298937Y341308D01*
X300165Y338344D01*
X300165Y322056D01*
X298937Y319092D01*
X296668Y316823D01*
X293704Y315595D01*
X290496Y315595D01*
G37*
%LPD*%
%LPC*%
G36*
X442896Y315595D02*
X442896Y315595D01*
X439932Y316823D01*
X437663Y319092D01*
X436435Y322056D01*
X436435Y338344D01*
X437663Y341308D01*
X439932Y343577D01*
X442896Y344805D01*
X446104Y344805D01*
X449068Y343577D01*
X451337Y341308D01*
X452565Y338344D01*
X452565Y322056D01*
X451337Y319092D01*
X449068Y316823D01*
X446104Y315595D01*
X442896Y315595D01*
G37*
%LPD*%
%LPC*%
G36*
X341296Y315595D02*
X341296Y315595D01*
X338332Y316823D01*
X336063Y319092D01*
X334835Y322056D01*
X334835Y338344D01*
X336063Y341308D01*
X338332Y343577D01*
X341296Y344805D01*
X344504Y344805D01*
X347468Y343577D01*
X349737Y341308D01*
X350965Y338344D01*
X350965Y322056D01*
X349737Y319092D01*
X347468Y316823D01*
X344504Y315595D01*
X341296Y315595D01*
G37*
%LPD*%
%LPC*%
G36*
X315896Y315595D02*
X315896Y315595D01*
X312932Y316823D01*
X310663Y319092D01*
X309435Y322056D01*
X309435Y338344D01*
X310663Y341308D01*
X312932Y343577D01*
X315896Y344805D01*
X319104Y344805D01*
X322068Y343577D01*
X324337Y341308D01*
X325565Y338344D01*
X325565Y322056D01*
X324337Y319092D01*
X322068Y316823D01*
X319104Y315595D01*
X315896Y315595D01*
G37*
%LPD*%
%LPC*%
G36*
X265096Y315595D02*
X265096Y315595D01*
X262132Y316823D01*
X259863Y319092D01*
X258635Y322056D01*
X258635Y338344D01*
X259863Y341308D01*
X262132Y343577D01*
X265096Y344805D01*
X268304Y344805D01*
X271268Y343577D01*
X273537Y341308D01*
X274765Y338344D01*
X274765Y322056D01*
X273537Y319092D01*
X271268Y316823D01*
X268304Y315595D01*
X265096Y315595D01*
G37*
%LPD*%
%LPC*%
G36*
X110512Y282955D02*
X110512Y282955D01*
X105155Y288312D01*
X105155Y295888D01*
X110512Y301245D01*
X118088Y301245D01*
X123445Y295888D01*
X123445Y288312D01*
X118088Y282955D01*
X110512Y282955D01*
G37*
%LPD*%
%LPC*%
G36*
X110512Y257555D02*
X110512Y257555D01*
X105155Y262912D01*
X105155Y270488D01*
X110512Y275845D01*
X118088Y275845D01*
X123445Y270488D01*
X123445Y262912D01*
X118088Y257555D01*
X110512Y257555D01*
G37*
%LPD*%
%LPC*%
G36*
X85112Y257555D02*
X85112Y257555D01*
X79755Y262912D01*
X79755Y270488D01*
X85112Y275845D01*
X92688Y275845D01*
X98045Y270488D01*
X98045Y262912D01*
X92688Y257555D01*
X85112Y257555D01*
G37*
%LPD*%
%LPC*%
G36*
X110512Y232155D02*
X110512Y232155D01*
X105155Y237512D01*
X105155Y245088D01*
X110512Y250445D01*
X118088Y250445D01*
X123445Y245088D01*
X123445Y237512D01*
X118088Y232155D01*
X110512Y232155D01*
G37*
%LPD*%
%LPC*%
G36*
X85112Y232155D02*
X85112Y232155D01*
X79755Y237512D01*
X79755Y245088D01*
X85112Y250445D01*
X92688Y250445D01*
X98045Y245088D01*
X98045Y237512D01*
X92688Y232155D01*
X85112Y232155D01*
G37*
%LPD*%
%LPC*%
G36*
X85112Y206755D02*
X85112Y206755D01*
X79755Y212112D01*
X79755Y219688D01*
X85112Y225045D01*
X92688Y225045D01*
X98045Y219688D01*
X98045Y212112D01*
X92688Y206755D01*
X85112Y206755D01*
G37*
%LPD*%
%LPC*%
G36*
X110512Y206755D02*
X110512Y206755D01*
X105155Y212112D01*
X105155Y219688D01*
X110512Y225045D01*
X118088Y225045D01*
X123445Y219688D01*
X123445Y212112D01*
X118088Y206755D01*
X110512Y206755D01*
G37*
%LPD*%
%LPC*%
G36*
X430196Y271335D02*
X430196Y271335D01*
X427232Y272563D01*
X424963Y274832D01*
X423735Y277796D01*
X423735Y281004D01*
X424963Y283968D01*
X427232Y286237D01*
X430196Y287465D01*
X433404Y287465D01*
X436368Y286237D01*
X438637Y283968D01*
X439865Y281004D01*
X439865Y277796D01*
X438637Y274832D01*
X436368Y272563D01*
X433404Y271335D01*
X430196Y271335D01*
G37*
%LPD*%
%LPC*%
G36*
X430196Y245935D02*
X430196Y245935D01*
X427232Y247163D01*
X424963Y249432D01*
X423735Y252396D01*
X423735Y255604D01*
X424963Y258568D01*
X427232Y260837D01*
X430196Y262065D01*
X433404Y262065D01*
X436368Y260837D01*
X438637Y258568D01*
X439865Y255604D01*
X439865Y252396D01*
X438637Y249432D01*
X436368Y247163D01*
X433404Y245935D01*
X430196Y245935D01*
G37*
%LPD*%
%LPC*%
G36*
X455596Y245935D02*
X455596Y245935D01*
X452632Y247163D01*
X450363Y249432D01*
X449135Y252396D01*
X449135Y255604D01*
X450363Y258568D01*
X452632Y260837D01*
X455596Y262065D01*
X458804Y262065D01*
X461768Y260837D01*
X464037Y258568D01*
X465265Y255604D01*
X465265Y252396D01*
X464037Y249432D01*
X461768Y247163D01*
X458804Y245935D01*
X455596Y245935D01*
G37*
%LPD*%
%LPC*%
G36*
X455596Y271335D02*
X455596Y271335D01*
X452632Y272563D01*
X450363Y274832D01*
X449135Y277796D01*
X449135Y281004D01*
X450363Y283968D01*
X452632Y286237D01*
X455596Y287465D01*
X458804Y287465D01*
X461768Y286237D01*
X464037Y283968D01*
X465265Y281004D01*
X465265Y277796D01*
X464037Y274832D01*
X461768Y272563D01*
X458804Y271335D01*
X455596Y271335D01*
G37*
%LPD*%
%LPC*%
G36*
X430196Y220535D02*
X430196Y220535D01*
X427232Y221763D01*
X424963Y224032D01*
X423735Y226996D01*
X423735Y230204D01*
X424963Y233168D01*
X427232Y235437D01*
X430196Y236665D01*
X433404Y236665D01*
X436368Y235437D01*
X438637Y233168D01*
X439865Y230204D01*
X439865Y226996D01*
X438637Y224032D01*
X436368Y221763D01*
X433404Y220535D01*
X430196Y220535D01*
G37*
%LPD*%
%LPC*%
G36*
X455596Y220535D02*
X455596Y220535D01*
X452632Y221763D01*
X450363Y224032D01*
X449135Y226996D01*
X449135Y230204D01*
X450363Y233168D01*
X452632Y235437D01*
X455596Y236665D01*
X458804Y236665D01*
X461768Y235437D01*
X464037Y233168D01*
X465265Y230204D01*
X465265Y226996D01*
X464037Y224032D01*
X461768Y221763D01*
X458804Y220535D01*
X455596Y220535D01*
G37*
%LPD*%
%LPC*%
G36*
X509523Y395223D02*
X509523Y395223D01*
X509523Y411366D01*
X510379Y411231D01*
X511900Y410736D01*
X513325Y410010D01*
X514619Y409070D01*
X515750Y407939D01*
X516690Y406645D01*
X517416Y405220D01*
X517911Y403699D01*
X518161Y402120D01*
X518161Y395223D01*
X509523Y395223D01*
G37*
%LPD*%
%LPC*%
G36*
X382523Y395223D02*
X382523Y395223D01*
X382523Y411366D01*
X383379Y411231D01*
X384900Y410736D01*
X386325Y410010D01*
X387619Y409070D01*
X388750Y407939D01*
X389690Y406645D01*
X390416Y405220D01*
X390911Y403699D01*
X391161Y402120D01*
X391161Y395223D01*
X382523Y395223D01*
G37*
%LPD*%
%LPC*%
G36*
X242823Y395223D02*
X242823Y395223D01*
X242823Y411366D01*
X243679Y411231D01*
X245200Y410736D01*
X246625Y410010D01*
X247919Y409070D01*
X249050Y407939D01*
X249990Y406645D01*
X250716Y405220D01*
X251211Y403699D01*
X251461Y402120D01*
X251461Y395223D01*
X242823Y395223D01*
G37*
%LPD*%
%LPC*%
G36*
X115823Y395223D02*
X115823Y395223D01*
X115823Y411366D01*
X116679Y411231D01*
X118200Y410736D01*
X119625Y410010D01*
X120919Y409070D01*
X122050Y407939D01*
X122990Y406645D01*
X123716Y405220D01*
X124211Y403699D01*
X124461Y402120D01*
X124461Y395223D01*
X115823Y395223D01*
G37*
%LPD*%
%LPC*%
G36*
X319023Y77723D02*
X319023Y77723D01*
X319023Y93866D01*
X319879Y93731D01*
X321400Y93236D01*
X322825Y92510D01*
X324119Y91570D01*
X325250Y90439D01*
X326190Y89145D01*
X326916Y87720D01*
X327411Y86199D01*
X327661Y84620D01*
X327661Y77723D01*
X319023Y77723D01*
G37*
%LPD*%
%LPC*%
G36*
X522223Y77723D02*
X522223Y77723D01*
X522223Y93866D01*
X523079Y93731D01*
X524600Y93236D01*
X526025Y92510D01*
X527319Y91570D01*
X528450Y90439D01*
X529390Y89145D01*
X530116Y87720D01*
X530611Y86199D01*
X530861Y84620D01*
X530861Y77723D01*
X522223Y77723D01*
G37*
%LPD*%
%LPC*%
G36*
X420623Y77723D02*
X420623Y77723D01*
X420623Y93866D01*
X421479Y93731D01*
X423000Y93236D01*
X424425Y92510D01*
X425719Y91570D01*
X426850Y90439D01*
X427790Y89145D01*
X428516Y87720D01*
X429011Y86199D01*
X429261Y84620D01*
X429261Y77723D01*
X420623Y77723D01*
G37*
%LPD*%
%LPC*%
G36*
X166623Y77723D02*
X166623Y77723D01*
X166623Y93866D01*
X167479Y93731D01*
X169000Y93236D01*
X170425Y92510D01*
X171719Y91570D01*
X172850Y90439D01*
X173790Y89145D01*
X174516Y87720D01*
X175011Y86199D01*
X175261Y84620D01*
X175261Y77723D01*
X166623Y77723D01*
G37*
%LPD*%
%LPC*%
G36*
X90423Y77723D02*
X90423Y77723D01*
X90423Y86361D01*
X97320Y86361D01*
X98899Y86111D01*
X100420Y85616D01*
X101845Y84890D01*
X103139Y83950D01*
X104270Y82819D01*
X105210Y81525D01*
X105936Y80100D01*
X106431Y78579D01*
X106566Y77723D01*
X90423Y77723D01*
G37*
%LPD*%
%LPC*%
G36*
X71234Y77723D02*
X71234Y77723D01*
X71369Y78579D01*
X71864Y80100D01*
X72590Y81525D01*
X73530Y82819D01*
X74661Y83950D01*
X75955Y84890D01*
X77380Y85616D01*
X78901Y86111D01*
X80480Y86361D01*
X87377Y86361D01*
X87377Y77723D01*
X71234Y77723D01*
G37*
%LPD*%
%LPC*%
G36*
X115823Y392177D02*
X115823Y392177D01*
X124461Y392177D01*
X124461Y385280D01*
X124211Y383701D01*
X123716Y382180D01*
X122990Y380755D01*
X122050Y379461D01*
X120919Y378330D01*
X119625Y377390D01*
X118200Y376664D01*
X116679Y376169D01*
X115823Y376034D01*
X115823Y392177D01*
G37*
%LPD*%
%LPC*%
G36*
X242823Y392177D02*
X242823Y392177D01*
X251461Y392177D01*
X251461Y385280D01*
X251211Y383701D01*
X250716Y382180D01*
X249990Y380755D01*
X249050Y379461D01*
X247919Y378330D01*
X246625Y377390D01*
X245200Y376664D01*
X243679Y376169D01*
X242823Y376034D01*
X242823Y392177D01*
G37*
%LPD*%
%LPC*%
G36*
X522223Y74677D02*
X522223Y74677D01*
X530861Y74677D01*
X530861Y67780D01*
X530611Y66201D01*
X530116Y64680D01*
X529390Y63255D01*
X528450Y61961D01*
X527319Y60830D01*
X526025Y59890D01*
X524600Y59164D01*
X523079Y58669D01*
X522223Y58534D01*
X522223Y74677D01*
G37*
%LPD*%
%LPC*%
G36*
X420623Y74677D02*
X420623Y74677D01*
X429261Y74677D01*
X429261Y67780D01*
X429011Y66201D01*
X428516Y64680D01*
X427790Y63255D01*
X426850Y61961D01*
X425719Y60830D01*
X424425Y59890D01*
X423000Y59164D01*
X421479Y58669D01*
X420623Y58534D01*
X420623Y74677D01*
G37*
%LPD*%
%LPC*%
G36*
X319023Y74677D02*
X319023Y74677D01*
X327661Y74677D01*
X327661Y67780D01*
X327411Y66201D01*
X326916Y64680D01*
X326190Y63255D01*
X325250Y61961D01*
X324119Y60830D01*
X322825Y59890D01*
X321400Y59164D01*
X319879Y58669D01*
X319023Y58534D01*
X319023Y74677D01*
G37*
%LPD*%
%LPC*%
G36*
X382523Y392177D02*
X382523Y392177D01*
X391161Y392177D01*
X391161Y385280D01*
X390911Y383701D01*
X390416Y382180D01*
X389690Y380755D01*
X388750Y379461D01*
X387619Y378330D01*
X386325Y377390D01*
X384900Y376664D01*
X383379Y376169D01*
X382523Y376034D01*
X382523Y392177D01*
G37*
%LPD*%
%LPC*%
G36*
X166623Y74677D02*
X166623Y74677D01*
X175261Y74677D01*
X175261Y67780D01*
X175011Y66201D01*
X174516Y64680D01*
X173790Y63255D01*
X172850Y61961D01*
X171719Y60830D01*
X170425Y59890D01*
X169000Y59164D01*
X167479Y58669D01*
X166623Y58534D01*
X166623Y74677D01*
G37*
%LPD*%
%LPC*%
G36*
X509523Y392177D02*
X509523Y392177D01*
X518161Y392177D01*
X518161Y385280D01*
X517911Y383701D01*
X517416Y382180D01*
X516690Y380755D01*
X515750Y379461D01*
X514619Y378330D01*
X513325Y377390D01*
X511900Y376664D01*
X510379Y376169D01*
X509523Y376034D01*
X509523Y392177D01*
G37*
%LPD*%
%LPC*%
G36*
X154939Y77723D02*
X154939Y77723D01*
X154939Y84620D01*
X155189Y86199D01*
X155684Y87720D01*
X156410Y89145D01*
X157350Y90439D01*
X158481Y91570D01*
X159775Y92510D01*
X161200Y93236D01*
X162721Y93731D01*
X163577Y93866D01*
X163577Y77723D01*
X154939Y77723D01*
G37*
%LPD*%
%LPC*%
G36*
X510539Y77723D02*
X510539Y77723D01*
X510539Y84620D01*
X510789Y86199D01*
X511284Y87720D01*
X512010Y89145D01*
X512950Y90439D01*
X514081Y91570D01*
X515375Y92510D01*
X516800Y93236D01*
X518321Y93731D01*
X519177Y93866D01*
X519177Y77723D01*
X510539Y77723D01*
G37*
%LPD*%
%LPC*%
G36*
X408939Y77723D02*
X408939Y77723D01*
X408939Y84620D01*
X409189Y86199D01*
X409684Y87720D01*
X410410Y89145D01*
X411350Y90439D01*
X412481Y91570D01*
X413775Y92510D01*
X415200Y93236D01*
X416721Y93731D01*
X417577Y93866D01*
X417577Y77723D01*
X408939Y77723D01*
G37*
%LPD*%
%LPC*%
G36*
X307339Y77723D02*
X307339Y77723D01*
X307339Y84620D01*
X307589Y86199D01*
X308084Y87720D01*
X308810Y89145D01*
X309750Y90439D01*
X310881Y91570D01*
X312175Y92510D01*
X313600Y93236D01*
X315121Y93731D01*
X315977Y93866D01*
X315977Y77723D01*
X307339Y77723D01*
G37*
%LPD*%
%LPC*%
G36*
X104139Y395223D02*
X104139Y395223D01*
X104139Y402120D01*
X104389Y403699D01*
X104884Y405220D01*
X105610Y406645D01*
X106550Y407939D01*
X107681Y409070D01*
X108975Y410010D01*
X110400Y410736D01*
X111921Y411231D01*
X112777Y411366D01*
X112777Y395223D01*
X104139Y395223D01*
G37*
%LPD*%
%LPC*%
G36*
X90423Y66039D02*
X90423Y66039D01*
X90423Y74677D01*
X106566Y74677D01*
X106431Y73821D01*
X105936Y72300D01*
X105210Y70875D01*
X104270Y69581D01*
X103139Y68450D01*
X101845Y67510D01*
X100420Y66784D01*
X98899Y66289D01*
X97320Y66039D01*
X90423Y66039D01*
G37*
%LPD*%
%LPC*%
G36*
X497839Y395223D02*
X497839Y395223D01*
X497839Y402120D01*
X498089Y403699D01*
X498584Y405220D01*
X499310Y406645D01*
X500250Y407939D01*
X501381Y409070D01*
X502675Y410010D01*
X504100Y410736D01*
X505621Y411231D01*
X506477Y411366D01*
X506477Y395223D01*
X497839Y395223D01*
G37*
%LPD*%
%LPC*%
G36*
X370839Y395223D02*
X370839Y395223D01*
X370839Y402120D01*
X371089Y403699D01*
X371584Y405220D01*
X372310Y406645D01*
X373250Y407939D01*
X374381Y409070D01*
X375675Y410010D01*
X377100Y410736D01*
X378621Y411231D01*
X379477Y411366D01*
X379477Y395223D01*
X370839Y395223D01*
G37*
%LPD*%
%LPC*%
G36*
X231139Y395223D02*
X231139Y395223D01*
X231139Y402120D01*
X231389Y403699D01*
X231884Y405220D01*
X232610Y406645D01*
X233550Y407939D01*
X234681Y409070D01*
X235975Y410010D01*
X237400Y410736D01*
X238921Y411231D01*
X239777Y411366D01*
X239777Y395223D01*
X231139Y395223D01*
G37*
%LPD*%
%LPC*%
G36*
X162721Y58669D02*
X162721Y58669D01*
X161200Y59164D01*
X159775Y59890D01*
X158481Y60830D01*
X157350Y61961D01*
X156410Y63255D01*
X155684Y64680D01*
X155189Y66201D01*
X154939Y67780D01*
X154939Y74677D01*
X163577Y74677D01*
X163577Y58534D01*
X162721Y58669D01*
G37*
%LPD*%
%LPC*%
G36*
X378621Y376169D02*
X378621Y376169D01*
X377100Y376664D01*
X375675Y377390D01*
X374381Y378330D01*
X373250Y379461D01*
X372310Y380755D01*
X371584Y382180D01*
X371089Y383701D01*
X370839Y385280D01*
X370839Y392177D01*
X379477Y392177D01*
X379477Y376034D01*
X378621Y376169D01*
G37*
%LPD*%
%LPC*%
G36*
X80480Y66039D02*
X80480Y66039D01*
X78901Y66289D01*
X77380Y66784D01*
X75955Y67510D01*
X74661Y68450D01*
X73530Y69581D01*
X72590Y70875D01*
X71864Y72300D01*
X71369Y73821D01*
X71234Y74677D01*
X87377Y74677D01*
X87377Y66039D01*
X80480Y66039D01*
G37*
%LPD*%
%LPC*%
G36*
X518321Y58669D02*
X518321Y58669D01*
X516800Y59164D01*
X515375Y59890D01*
X514081Y60830D01*
X512950Y61961D01*
X512010Y63255D01*
X511284Y64680D01*
X510789Y66201D01*
X510539Y67780D01*
X510539Y74677D01*
X519177Y74677D01*
X519177Y58534D01*
X518321Y58669D01*
G37*
%LPD*%
%LPC*%
G36*
X315121Y58669D02*
X315121Y58669D01*
X313600Y59164D01*
X312175Y59890D01*
X310881Y60830D01*
X309750Y61961D01*
X308810Y63255D01*
X308084Y64680D01*
X307589Y66201D01*
X307339Y67780D01*
X307339Y74677D01*
X315977Y74677D01*
X315977Y58534D01*
X315121Y58669D01*
G37*
%LPD*%
%LPC*%
G36*
X238921Y376169D02*
X238921Y376169D01*
X237400Y376664D01*
X235975Y377390D01*
X234681Y378330D01*
X233550Y379461D01*
X232610Y380755D01*
X231884Y382180D01*
X231389Y383701D01*
X231139Y385280D01*
X231139Y392177D01*
X239777Y392177D01*
X239777Y376034D01*
X238921Y376169D01*
G37*
%LPD*%
%LPC*%
G36*
X416721Y58669D02*
X416721Y58669D01*
X415200Y59164D01*
X413775Y59890D01*
X412481Y60830D01*
X411350Y61961D01*
X410410Y63255D01*
X409684Y64680D01*
X409189Y66201D01*
X408939Y67780D01*
X408939Y74677D01*
X417577Y74677D01*
X417577Y58534D01*
X416721Y58669D01*
G37*
%LPD*%
%LPC*%
G36*
X111921Y376169D02*
X111921Y376169D01*
X110400Y376664D01*
X108975Y377390D01*
X107681Y378330D01*
X106550Y379461D01*
X105610Y380755D01*
X104884Y382180D01*
X104389Y383701D01*
X104139Y385280D01*
X104139Y392177D01*
X112777Y392177D01*
X112777Y376034D01*
X111921Y376169D01*
G37*
%LPD*%
%LPC*%
G36*
X505621Y376169D02*
X505621Y376169D01*
X504100Y376664D01*
X502675Y377390D01*
X501381Y378330D01*
X500250Y379461D01*
X499310Y380755D01*
X498584Y382180D01*
X498089Y383701D01*
X497839Y385280D01*
X497839Y392177D01*
X506477Y392177D01*
X506477Y376034D01*
X505621Y376169D01*
G37*
%LPD*%
%LPC*%
G36*
X369823Y179323D02*
X369823Y179323D01*
X369823Y193296D01*
X370949Y193072D01*
X372601Y192387D01*
X374089Y191393D01*
X375353Y190129D01*
X376347Y188641D01*
X377032Y186989D01*
X377381Y185234D01*
X377381Y179323D01*
X369823Y179323D01*
G37*
%LPD*%
%LPC*%
G36*
X420623Y331723D02*
X420623Y331723D01*
X420623Y345696D01*
X421749Y345472D01*
X423401Y344787D01*
X424889Y343793D01*
X426153Y342529D01*
X427147Y341041D01*
X427832Y339389D01*
X428181Y337634D01*
X428181Y331723D01*
X420623Y331723D01*
G37*
%LPD*%
%LPC*%
G36*
X420623Y328677D02*
X420623Y328677D01*
X428181Y328677D01*
X428181Y322766D01*
X427832Y321011D01*
X427147Y319359D01*
X426153Y317871D01*
X424889Y316607D01*
X423401Y315613D01*
X421749Y314928D01*
X420623Y314704D01*
X420623Y328677D01*
G37*
%LPD*%
%LPC*%
G36*
X369823Y176277D02*
X369823Y176277D01*
X377381Y176277D01*
X377381Y170366D01*
X377032Y168611D01*
X376347Y166959D01*
X375353Y165471D01*
X374089Y164207D01*
X372601Y163213D01*
X370949Y162528D01*
X369823Y162304D01*
X369823Y176277D01*
G37*
%LPD*%
%LPC*%
G36*
X410019Y331723D02*
X410019Y331723D01*
X410019Y337634D01*
X410368Y339389D01*
X411053Y341041D01*
X412047Y342529D01*
X413311Y343793D01*
X414799Y344787D01*
X416451Y345472D01*
X417577Y345696D01*
X417577Y331723D01*
X410019Y331723D01*
G37*
%LPD*%
%LPC*%
G36*
X359219Y179323D02*
X359219Y179323D01*
X359219Y185234D01*
X359568Y186989D01*
X360253Y188641D01*
X361247Y190129D01*
X362511Y191393D01*
X363999Y192387D01*
X365651Y193072D01*
X366777Y193296D01*
X366777Y179323D01*
X359219Y179323D01*
G37*
%LPD*%
%LPC*%
G36*
X365651Y162528D02*
X365651Y162528D01*
X363999Y163213D01*
X362511Y164207D01*
X361247Y165471D01*
X360253Y166959D01*
X359568Y168611D01*
X359219Y170366D01*
X359219Y176277D01*
X366777Y176277D01*
X366777Y162304D01*
X365651Y162528D01*
G37*
%LPD*%
%LPC*%
G36*
X416451Y314928D02*
X416451Y314928D01*
X414799Y315613D01*
X413311Y316607D01*
X412047Y317871D01*
X411053Y319359D01*
X410368Y321011D01*
X410019Y322766D01*
X410019Y328677D01*
X417577Y328677D01*
X417577Y314704D01*
X416451Y314928D01*
G37*
%LPD*%
%LPC*%
G36*
X90423Y293623D02*
X90423Y293623D01*
X90423Y302261D01*
X93109Y302261D01*
X99061Y296309D01*
X99061Y293623D01*
X90423Y293623D01*
G37*
%LPD*%
%LPC*%
G36*
X90423Y290577D02*
X90423Y290577D01*
X99061Y290577D01*
X99061Y287891D01*
X93109Y281939D01*
X90423Y281939D01*
X90423Y290577D01*
G37*
%LPD*%
%LPC*%
G36*
X78739Y293623D02*
X78739Y293623D01*
X78739Y296309D01*
X84691Y302261D01*
X87377Y302261D01*
X87377Y293623D01*
X78739Y293623D01*
G37*
%LPD*%
%LPC*%
G36*
X84691Y281939D02*
X84691Y281939D01*
X78739Y287891D01*
X78739Y290577D01*
X87377Y290577D01*
X87377Y281939D01*
X84691Y281939D01*
G37*
%LPD*%
%LPC*%
G36*
X165099Y76199D02*
X165099Y76199D01*
X165099Y76201D01*
X165101Y76201D01*
X165101Y76199D01*
X165099Y76199D01*
G37*
%LPD*%
%LPC*%
G36*
X88899Y76199D02*
X88899Y76199D01*
X88899Y76201D01*
X88901Y76201D01*
X88901Y76199D01*
X88899Y76199D01*
G37*
%LPD*%
%LPC*%
G36*
X317499Y76199D02*
X317499Y76199D01*
X317499Y76201D01*
X317501Y76201D01*
X317501Y76199D01*
X317499Y76199D01*
G37*
%LPD*%
%LPC*%
G36*
X419099Y76199D02*
X419099Y76199D01*
X419099Y76201D01*
X419101Y76201D01*
X419101Y76199D01*
X419099Y76199D01*
G37*
%LPD*%
%LPC*%
G36*
X520699Y76199D02*
X520699Y76199D01*
X520699Y76201D01*
X520701Y76201D01*
X520701Y76199D01*
X520699Y76199D01*
G37*
%LPD*%
%LPC*%
G36*
X88899Y292099D02*
X88899Y292099D01*
X88899Y292101D01*
X88901Y292101D01*
X88901Y292099D01*
X88899Y292099D01*
G37*
%LPD*%
%LPC*%
G36*
X114299Y393699D02*
X114299Y393699D01*
X114299Y393701D01*
X114301Y393701D01*
X114301Y393699D01*
X114299Y393699D01*
G37*
%LPD*%
%LPC*%
G36*
X380999Y393699D02*
X380999Y393699D01*
X380999Y393701D01*
X381001Y393701D01*
X381001Y393699D01*
X380999Y393699D01*
G37*
%LPD*%
%LPC*%
G36*
X507999Y393699D02*
X507999Y393699D01*
X507999Y393701D01*
X508001Y393701D01*
X508001Y393699D01*
X507999Y393699D01*
G37*
%LPD*%
%LPC*%
G36*
X241299Y393699D02*
X241299Y393699D01*
X241299Y393701D01*
X241301Y393701D01*
X241301Y393699D01*
X241299Y393699D01*
G37*
%LPD*%
%LPC*%
G36*
X368299Y177799D02*
X368299Y177799D01*
X368299Y177801D01*
X368301Y177801D01*
X368301Y177799D01*
X368299Y177799D01*
G37*
%LPD*%
%LPC*%
G36*
X419099Y330199D02*
X419099Y330199D01*
X419099Y330201D01*
X419101Y330201D01*
X419101Y330199D01*
X419099Y330199D01*
G37*
%LPD*%
D10*
X482600Y386080D02*
X482600Y401320D01*
X508000Y401320D02*
X508000Y386080D01*
X533400Y386080D02*
X533400Y401320D01*
D11*
X88900Y292100D03*
X114300Y292100D03*
X88900Y266700D03*
X114300Y266700D03*
X88900Y241300D03*
X114300Y241300D03*
X88900Y215900D03*
X114300Y215900D03*
D10*
X355600Y386080D02*
X355600Y401320D01*
X381000Y401320D02*
X381000Y386080D01*
X406400Y386080D02*
X406400Y401320D01*
X215900Y401320D02*
X215900Y386080D01*
X241300Y386080D02*
X241300Y401320D01*
X266700Y401320D02*
X266700Y386080D01*
X96520Y50800D02*
X81280Y50800D01*
X81280Y76200D02*
X96520Y76200D01*
X96520Y101600D02*
X81280Y101600D01*
X81280Y127000D02*
X96520Y127000D01*
X292100Y83820D02*
X292100Y68580D01*
X317500Y68580D02*
X317500Y83820D01*
X495300Y83820D02*
X495300Y68580D01*
X520700Y68580D02*
X520700Y83820D01*
X393700Y83820D02*
X393700Y68580D01*
X419100Y68580D02*
X419100Y83820D01*
X88900Y386080D02*
X88900Y401320D01*
X114300Y401320D02*
X114300Y386080D01*
X139700Y386080D02*
X139700Y401320D01*
X165100Y83820D02*
X165100Y68580D01*
X190500Y68580D02*
X190500Y83820D01*
X215900Y83820D02*
X215900Y68580D01*
D12*
X444500Y171260D02*
X444500Y184340D01*
X419100Y184340D02*
X419100Y171260D01*
X393700Y171260D02*
X393700Y184340D01*
X368300Y184340D02*
X368300Y171260D01*
X342900Y171260D02*
X342900Y184340D01*
X317500Y184340D02*
X317500Y171260D01*
X292100Y171260D02*
X292100Y184340D01*
X266700Y184340D02*
X266700Y171260D01*
X241300Y171260D02*
X241300Y184340D01*
X215900Y184340D02*
X215900Y171260D01*
X190500Y171260D02*
X190500Y184340D01*
X165100Y184340D02*
X165100Y171260D01*
X444500Y323660D02*
X444500Y336740D01*
X419100Y336740D02*
X419100Y323660D01*
X393700Y323660D02*
X393700Y336740D01*
X241300Y336740D02*
X241300Y323660D01*
X215900Y323660D02*
X215900Y336740D01*
X190500Y336740D02*
X190500Y323660D01*
X165100Y323660D02*
X165100Y336740D01*
X88900Y336740D02*
X88900Y323660D01*
X88900Y184340D02*
X88900Y171260D01*
X114300Y171260D02*
X114300Y184340D01*
X139700Y184340D02*
X139700Y171260D01*
X114300Y323660D02*
X114300Y336740D01*
X139700Y336740D02*
X139700Y323660D01*
X368300Y323660D02*
X368300Y336740D01*
D13*
X431800Y279400D03*
X431800Y254000D03*
X431800Y228600D03*
D12*
X266700Y323660D02*
X266700Y336740D01*
X292100Y336740D02*
X292100Y323660D01*
X317500Y323660D02*
X317500Y336740D01*
X342900Y336740D02*
X342900Y323660D01*
D13*
X457200Y279400D03*
X457200Y254000D03*
X457200Y228600D03*
D14*
X520700Y292100D03*
D15*
X165100Y139700D02*
X127000Y139700D01*
X165100Y139700D02*
X177800Y152400D01*
X165100Y304800D02*
X165100Y330200D01*
X165100Y304800D02*
X177800Y292100D01*
X177800Y152400D01*
X114300Y127000D02*
X88900Y127000D01*
X114300Y127000D02*
X127000Y139700D01*
X241300Y177800D02*
X241300Y203200D01*
X254000Y215900D01*
X482600Y368300D02*
X482600Y393700D01*
X292100Y215900D02*
X254000Y215900D01*
X381000Y304800D02*
X457200Y304800D01*
X469900Y317500D01*
X469900Y355600D01*
X482600Y368300D01*
X368300Y292100D02*
X292100Y215900D01*
X368300Y292100D02*
X381000Y304800D01*
D16*
X647700Y495300D03*
D15*
X355600Y393700D02*
X355600Y368300D01*
X330200Y342900D01*
X215900Y203200D02*
X215900Y177800D01*
X241300Y228600D02*
X279400Y228600D01*
X330200Y279400D01*
X241300Y228600D02*
X215900Y203200D01*
X330200Y279400D02*
X330200Y342900D01*
X304800Y342900D02*
X304800Y279400D01*
X266700Y241300D01*
X228600Y241300D01*
X190500Y203200D01*
X190500Y177800D01*
X215900Y368300D02*
X215900Y393700D01*
X215900Y368300D02*
X228600Y355600D01*
X292100Y355600D02*
X304800Y342900D01*
X292100Y355600D02*
X228600Y355600D01*
X50800Y165100D02*
X63500Y152400D01*
X152400Y152400D01*
X165100Y165100D01*
X165100Y177800D01*
X50800Y165100D02*
X50800Y330200D01*
X88900Y368300D02*
X88900Y393700D01*
X88900Y368300D02*
X50800Y330200D01*
X292100Y177800D02*
X292100Y152400D01*
X495300Y101600D02*
X495300Y76200D01*
X495300Y101600D02*
X469900Y127000D01*
X317500Y127000D02*
X292100Y152400D01*
X317500Y127000D02*
X469900Y127000D01*
X266700Y152400D02*
X266700Y177800D01*
X266700Y152400D02*
X304800Y114300D01*
X393700Y88900D02*
X393700Y76200D01*
X393700Y101600D01*
X381000Y114300D01*
X304800Y114300D01*
X520700Y292100D02*
X520700Y330200D01*
X558800Y368300D01*
X558800Y406400D01*
X520700Y444500D01*
X241300Y444500D01*
X520700Y292100D02*
X520700Y266700D01*
X546100Y241300D01*
X546100Y88900D01*
X558800Y76200D01*
X558800Y63500D01*
X25400Y76200D02*
X25400Y406400D01*
X88900Y12700D02*
X508000Y12700D01*
X26095Y406400D02*
X25400Y406400D01*
X76200Y25400D02*
X88900Y12700D01*
X38100Y63500D02*
X25400Y76200D01*
D16*
X305495Y609600D03*
D15*
X51147Y431453D02*
X26095Y406400D01*
X38100Y63500D02*
X50800Y63500D01*
X76200Y38100D01*
X76200Y25400D01*
X508000Y12700D02*
X558800Y63500D01*
M02*
