M48
;GenerationSoftware,Autodesk,EAGLE,9.1.3*%
;CreationDate,2019-02-17T14:50:34Z*%
FMAT,2
ICI,OFF
METRIC,TZ,000.000
T3C0.800
T2C1.016
T1C3.302
%
G90
M71
T1
X3175Y46355
X3175Y3175
X57785Y3175
X57785Y46355
T2
X48260Y39370
X50800Y39370
X53340Y39370
X8890Y29210
X11430Y29210
X8890Y26670
X11430Y26670
X8890Y24130
X11430Y24130
X8890Y21590
X11430Y21590
X35560Y39370
X38100Y39370
X40640Y39370
X21590Y39370
X24130Y39370
X26670Y39370
X8890Y5080
X8890Y7620
X8890Y10160
X8890Y12700
X29210Y7620
X31750Y7620
X49530Y7620
X52070Y7620
X39370Y7620
X41910Y7620
X8890Y39370
X11430Y39370
X13970Y39370
X16510Y7620
X19050Y7620
X21590Y7620
X52070Y29210
T3
X41910Y17780
X39370Y17780
X36830Y17780
X34290Y17780
X31750Y17780
X29210Y17780
X26670Y17780
X24130Y17780
X21590Y17780
X19050Y17780
X16510Y17780
X44450Y33020
X41910Y33020
X39370Y33020
X24130Y33020
X21590Y33020
X19050Y33020
X16510Y33020
X8890Y33020
X8890Y17780
X11430Y17780
X13970Y17780
X11430Y33020
X13970Y33020
X36830Y33020
X43180Y27940
X43180Y25400
X43180Y22860
X26670Y33020
X29210Y33020
X31750Y33020
X34290Y33020
X45720Y27940
X45720Y25400
X45720Y22860
X44450Y17780
M30