G04 EAGLE Gerber X2 export*
%TF.Part,Single*%
%TF.FileFunction,Soldermask,Top,1*%
%TF.FilePolarity,Negative*%
%TF.GenerationSoftware,Autodesk,EAGLE,9.1.3*%
%TF.CreationDate,2019-02-17T14:50:35Z*%
G75*
%MOMM*%
%FSLAX34Y34*%
%LPD*%
%AMOC8*
5,1,8,0,0,1.08239X$1,22.5*%
G01*
%ADD10C,3.505200*%
%ADD11C,1.727200*%
%ADD12P,1.869504X8X292.500000*%
%ADD13C,1.511200*%
%ADD14C,1.511200*%
%ADD15P,1.869504X8X22.500000*%


D10*
X31750Y463550D03*
X31750Y31750D03*
X577850Y31750D03*
X577850Y463550D03*
D11*
X482600Y401320D02*
X482600Y386080D01*
X508000Y386080D02*
X508000Y401320D01*
X533400Y401320D02*
X533400Y386080D01*
D12*
X88900Y292100D03*
X114300Y292100D03*
X88900Y266700D03*
X114300Y266700D03*
X88900Y241300D03*
X114300Y241300D03*
X88900Y215900D03*
X114300Y215900D03*
D11*
X355600Y386080D02*
X355600Y401320D01*
X381000Y401320D02*
X381000Y386080D01*
X406400Y386080D02*
X406400Y401320D01*
X215900Y401320D02*
X215900Y386080D01*
X241300Y386080D02*
X241300Y401320D01*
X266700Y401320D02*
X266700Y386080D01*
X96520Y50800D02*
X81280Y50800D01*
X81280Y76200D02*
X96520Y76200D01*
X96520Y101600D02*
X81280Y101600D01*
X81280Y127000D02*
X96520Y127000D01*
X292100Y83820D02*
X292100Y68580D01*
X317500Y68580D02*
X317500Y83820D01*
X495300Y83820D02*
X495300Y68580D01*
X520700Y68580D02*
X520700Y83820D01*
X393700Y83820D02*
X393700Y68580D01*
X419100Y68580D02*
X419100Y83820D01*
X88900Y386080D02*
X88900Y401320D01*
X114300Y401320D02*
X114300Y386080D01*
X139700Y386080D02*
X139700Y401320D01*
X165100Y83820D02*
X165100Y68580D01*
X190500Y68580D02*
X190500Y83820D01*
X215900Y83820D02*
X215900Y68580D01*
D13*
X444500Y171260D02*
X444500Y184340D01*
X419100Y184340D02*
X419100Y171260D01*
X393700Y171260D02*
X393700Y184340D01*
X368300Y184340D02*
X368300Y171260D01*
X342900Y171260D02*
X342900Y184340D01*
X317500Y184340D02*
X317500Y171260D01*
X292100Y171260D02*
X292100Y184340D01*
X266700Y184340D02*
X266700Y171260D01*
X241300Y171260D02*
X241300Y184340D01*
X215900Y184340D02*
X215900Y171260D01*
X190500Y171260D02*
X190500Y184340D01*
X165100Y184340D02*
X165100Y171260D01*
X444500Y323660D02*
X444500Y336740D01*
X419100Y336740D02*
X419100Y323660D01*
X393700Y323660D02*
X393700Y336740D01*
X241300Y336740D02*
X241300Y323660D01*
X215900Y323660D02*
X215900Y336740D01*
X190500Y336740D02*
X190500Y323660D01*
X165100Y323660D02*
X165100Y336740D01*
X88900Y336740D02*
X88900Y323660D01*
X88900Y184340D02*
X88900Y171260D01*
X114300Y171260D02*
X114300Y184340D01*
X139700Y184340D02*
X139700Y171260D01*
X114300Y323660D02*
X114300Y336740D01*
X139700Y336740D02*
X139700Y323660D01*
X368300Y323660D02*
X368300Y336740D01*
D14*
X431800Y279400D03*
X431800Y254000D03*
X431800Y228600D03*
D13*
X266700Y323660D02*
X266700Y336740D01*
X292100Y336740D02*
X292100Y323660D01*
X317500Y323660D02*
X317500Y336740D01*
X342900Y336740D02*
X342900Y323660D01*
D14*
X457200Y279400D03*
X457200Y254000D03*
X457200Y228600D03*
D15*
X520700Y292100D03*
M02*
